<?xml version="1.0" encoding="UTF-8" standalone="no"?>
<svg
   xmlns:dc="http://purl.org/dc/elements/1.1/"
   xmlns:cc="http://creativecommons.org/ns#"
   xmlns:rdf="http://www.w3.org/1999/02/22-rdf-syntax-ns#"
   xmlns:svg="http://www.w3.org/2000/svg"
   xmlns="http://www.w3.org/2000/svg"
   xmlns:sodipodi="http://sodipodi.sourceforge.net/DTD/sodipodi-0.dtd"
   xmlns:inkscape="http://www.inkscape.org/namespaces/inkscape"
   version="1.1"
   id="svg2"
   xml:space="preserve"
   viewBox="0 0 793.70667 1122.52"
   sodipodi:docname="Manual_FeitoNoCerrado_Final_.ai"><metadata
     id="metadata8"><rdf:RDF><cc:Work
         rdf:about=""><dc:format>image/svg+xml</dc:format><dc:type
           rdf:resource="http://purl.org/dc/dcmitype/StillImage" /></cc:Work></rdf:RDF></metadata><defs
     id="defs6"><clipPath
       clipPathUnits="userSpaceOnUse"
       id="clipPath18"><path
         d="M 0,841.89 H 595.28 V 0 H 0 Z"
         id="path16" /></clipPath><clipPath
       clipPathUnits="userSpaceOnUse"
       id="clipPath202"><path
         d="M 0,841.89 H 595.28 V 0 H 0 Z"
         id="path200" /></clipPath></defs><sodipodi:namedview
     pagecolor="#ffffff"
     bordercolor="#666666"
     borderopacity="1"
     objecttolerance="10"
     gridtolerance="10"
     guidetolerance="10"
     inkscape:pageopacity="0"
     inkscape:pageshadow="2"
     inkscape:window-width="640"
     inkscape:window-height="480"
     id="namedview4" /><g
     id="g10"
     inkscape:groupmode="layer"
     inkscape:label="Manual_FeitoNoCerrado_Final_"
     transform="matrix(1.3333333,0,0,-1.3333333,0,1122.52)"><g
       id="g12"><g
         id="g14"
         clip-path="url(#clipPath18)"><g
           id="g20"
           transform="translate(372.3123,464.0426)"><path
             d="m 0,0 0.067,0.102 -0.113,0.01 z m -18.721,-69.43 c -0.025,0.054 -0.062,0.155 -0.073,0.153 -0.104,-0.025 -0.204,-0.069 -0.305,-0.107 0.028,-0.051 0.044,-0.124 0.087,-0.15 0.128,-0.077 0.231,-0.033 0.291,0.104 m -5.245,34.033 c 0.036,0.05 0.109,0.106 0.102,0.149 -0.027,0.158 -0.136,0.212 -0.281,0.146 -0.052,-0.024 -0.085,-0.088 -0.126,-0.133 0.102,-0.054 0.203,-0.109 0.305,-0.162 m 15.735,26.963 c -0.111,-0.037 -0.222,-0.075 -0.333,-0.112 0.036,-0.042 0.071,-0.118 0.11,-0.12 0.12,-0.006 0.26,-0.017 0.356,0.038 0.107,0.061 0.044,0.16 -0.133,0.194 m -68.893,111.002 c -0.112,0.036 -0.225,0.102 -0.337,0.101 -0.095,-10e-4 -0.189,-0.08 -0.284,-0.124 0.178,-0.032 0.355,-0.07 0.534,-0.092 0.024,-0.003 0.058,0.074 0.087,0.115 M -54.85,-4.495 c 0.271,0.004 0.469,-0.005 0.569,0.202 0.016,0.035 -0.009,0.11 -0.039,0.145 -0.131,0.152 -0.302,0.238 -0.496,0.155 -0.156,-0.066 -0.293,-0.175 -0.438,-0.266 0.155,-0.09 0.31,-0.181 0.404,-0.236 m -25.365,-46.508 c -0.55,0.289 -0.923,0.189 -1.285,0.083 -0.094,-0.027 -0.226,-0.176 -0.216,-0.255 0.026,-0.224 0.217,-0.261 0.404,-0.205 0.299,0.09 0.591,0.201 1.097,0.377 m 41.559,46.723 c 0.568,-0.256 1.007,-0.281 1.442,-0.103 0.096,0.04 0.151,0.181 0.224,0.275 -0.099,0.063 -0.203,0.187 -0.296,0.179 -0.436,-0.038 -0.905,0.048 -1.37,-0.351 m 20.71,-64.351 c 0.64,0.183 1.331,0.226 1.561,0.948 0.01,0.032 -0.082,0.14 -0.12,0.137 -0.696,-0.056 -1.117,-0.529 -1.441,-1.085 M -43.32,-73.79 c 0.874,-0.086 1.479,0.257 2.114,0.437 -0.698,0.156 -1.34,0.009 -2.114,-0.437 m -49.604,-3.015 c 0.034,0.45 0.095,0.77 0.069,1.082 -0.023,0.268 -0.216,0.47 -0.5,0.519 -0.121,0.02 -0.279,0.021 -0.374,-0.041 -0.316,-0.206 -0.059,-0.448 0.008,-0.66 0.098,-0.306 0.247,-0.594 0.797,-0.9 m 85.331,52.415 c -0.729,0.423 -1.51,1.104 -2.422,0 z m -60.435,126.752 c 0.427,-0.066 0.852,-0.157 1.281,-0.192 0.445,-0.036 0.895,-0.04 1.34,-0.016 0.35,0.019 0.727,-0.182 1.169,0.191 -1.34,-0.245 -2.473,0.492 -3.79,0.017 m -20.1,-183.864 c -0.022,-0.099 -0.044,-0.198 -0.066,-0.298 1.019,0 2.038,-0.008 3.057,0.01 0.158,0.002 0.399,0.017 0.376,0.309 -0.026,0.341 -0.297,0.425 -0.53,0.397 -0.948,-0.114 -1.891,-0.274 -2.837,-0.418 m 1.705,35.755 c 0.538,-0.017 1.011,0.353 1.513,0.619 0.5,0.265 0.751,0.659 0.561,0.814 -0.317,0.258 -0.611,0.083 -0.902,-0.033 -0.481,-0.191 -0.962,-0.383 -1.426,-0.611 -0.183,-0.09 -0.217,-0.322 -0.133,-0.503 0.046,-0.1 0.197,-0.151 0.387,-0.286 m -16.795,126.902 c 1.212,0.003 1.368,0.045 1.549,0.418 0.178,0.366 -0.36,0.518 -1.606,0.398 -0.482,-0.046 -1.043,0.098 -1.403,-0.374 -0.213,-0.28 0.291,-0.445 1.46,-0.442 M -16.447,6.996 c -0.367,-0.033 -0.813,-0.063 -1.255,-0.119 -0.252,-0.032 -0.395,-0.428 -0.231,-0.601 0.723,-0.762 2.149,-0.616 2.589,0.333 0.096,0.208 -0.061,0.357 -0.26,0.38 -0.251,0.03 -0.509,0.007 -0.843,0.007 m -15.231,-78.407 c -1.372,0.026 -3.842,-0.54 -5.589,-1.232 1.94,-0.137 3.728,0.233 5.589,1.232 m 14.904,22.015 c -0.025,0.057 -0.033,0.139 -0.077,0.167 -1.097,0.709 -2.196,1.416 -3.303,2.109 -0.076,0.048 -0.279,0.026 -0.326,-0.037 -0.128,-0.17 -0.08,-0.349 0.095,-0.489 0.764,-0.616 1.523,-1.237 2.289,-1.85 0.336,-0.267 0.725,-0.283 1.116,-0.162 0.087,0.028 0.138,0.171 0.206,0.262 m -32.671,61.414 c -1.117,-0.395 -2.038,-0.711 -2.95,-1.049 -0.167,-0.062 -0.302,-0.211 -0.469,-0.332 0.489,-0.374 1.04,-0.27 1.544,-0.345 1.513,-0.225 1.633,-0.146 1.875,1.726 m -9.411,-31.769 c -0.129,-0.011 -0.26,-0.017 -0.388,-0.035 -0.385,-0.054 -0.935,-0.452 -0.857,-0.627 0.151,-0.338 0.489,-0.403 0.802,-0.487 0.504,-0.134 1.008,-0.268 1.517,-0.38 0.321,-0.071 0.653,-0.088 0.951,0.085 0.166,0.096 0.386,0.203 0.445,0.357 0.127,0.329 -0.213,0.412 -0.411,0.514 -0.644,0.329 -1.333,0.523 -2.059,0.573 m -15.605,-43.323 c 2.461,-0.379 4.897,-0.342 7.316,0.169 0.061,0.013 0.154,0.055 0.163,0.097 0.021,0.107 0.05,0.267 -0.007,0.325 -0.248,0.252 -0.589,0.283 -0.911,0.243 -2.188,-0.268 -4.374,-0.554 -6.561,-0.834 m 16.318,-16.541 c 1.718,-0.395 6.55,-0.401 8.451,-0.01 -2.719,0.799 -6.559,0.804 -8.451,0.01 m 12.305,49.925 c 4.026,-1.361 6.204,-1.53 9.215,-0.776 -3.109,0.579 -6.161,0.505 -9.215,0.776 m 3.25,-46.442 c 1.5,-0.02 3.006,-0.085 4.49,0.2 0.331,0.063 0.314,0.336 0.219,0.611 -0.146,0.427 -0.45,0.631 -0.883,0.628 -1.566,-0.011 -3.133,-0.011 -4.698,-0.066 -0.445,-0.015 -0.895,-0.168 -1.322,-0.318 -0.475,-0.167 -1.002,-0.271 -1.316,-0.737 0.397,-0.695 1.031,-0.257 1.553,-0.304 0.647,-0.058 1.304,-0.014 1.957,-0.014 m -4.89,88.838 c 1.348,-0.465 1.35,-0.486 2.409,-0.359 2.006,0.24 4.009,0.504 6.012,0.764 0.468,0.061 0.933,0.147 1.832,0.29 -1.518,0.565 -2.604,0.967 -3.688,1.374 -0.388,0.145 -0.774,0.113 -1.148,-0.026 -1.76,-0.659 -3.518,-1.326 -5.417,-2.043 M -2.11,-42.592 c -0.051,0.435 -0.101,1.014 -0.195,1.586 -0.033,0.203 -0.226,0.284 -0.441,0.228 -0.061,-0.016 -0.126,-0.035 -0.177,-0.07 -1.042,-0.705 -1.821,-1.65 -2.408,-2.746 -0.421,-0.787 -0.281,-2.317 0.171,-2.522 0.919,-0.418 2.262,0.219 2.676,1.286 0.116,0.299 0.205,0.616 0.257,0.933 0.062,0.381 0.072,0.771 0.117,1.305 m 4.587,33.583 c -0.033,-0.959 0.232,-1.817 0.818,-2.558 0.603,-0.761 1.623,-1.003 2.454,-0.615 0.763,0.356 1.293,1.225 1.11,2.088 C 6.555,-8.655 5.799,-7.448 4.65,-6.521 4.2,-6.158 3.645,-6.261 3.254,-6.683 2.64,-7.346 2.432,-8.142 2.477,-9.009 m -43.088,-3.825 c -0.095,0.069 -0.189,0.194 -0.279,0.192 -1.896,-0.049 -3.76,-0.383 -5.627,-0.672 -0.503,-0.078 -0.989,-0.317 -1.461,-0.531 -0.712,-0.323 -1.434,-0.641 -2.098,-1.048 -0.673,-0.414 -1.622,-0.45 -1.952,-1.358 0.623,-0.599 1.486,-0.339 2.206,-0.615 0.849,-0.327 1.643,-0.096 2.433,0.317 1.964,1.026 3.952,2.006 5.929,3.009 0.331,0.169 0.728,0.266 0.849,0.706 m -57.248,-39.054 c 0.785,-1.379 1.76,-2.577 3.195,-3.298 1.283,-0.645 2.587,-1.25 3.887,-1.862 0.351,-0.165 0.81,-0.234 0.939,-0.636 0.186,-0.581 0.634,-0.569 1.085,-0.63 4.035,-0.548 8.092,-0.32 12.143,-0.324 0.235,-0.001 0.483,0.148 0.7,0.273 0.085,0.049 0.144,0.224 0.136,0.335 -0.009,0.107 -0.112,0.289 -0.187,0.296 -0.581,0.059 -1.164,0.103 -1.748,0.114 -1.502,0.029 -3.02,0.175 -4.505,0.021 -1.548,-0.161 -2.951,0.402 -4.431,0.536 -0.065,0.006 -0.13,0.015 -0.194,0.027 -2.199,0.405 -4.3,1.099 -6.286,2.13 -0.991,0.515 -1.948,1.086 -2.662,1.967 -0.517,0.638 -1.2,0.953 -2.072,1.051 m 51.062,96.286 c -1.837,-0.027 -2.987,-1.666 -2.497,-3.558 0.437,-1.688 2.375,-3.257 4.145,-3.357 1.575,-0.088 2.375,0.652 2.202,2.195 -0.178,1.594 -0.887,2.975 -2.059,4.087 -0.493,0.468 -1.116,0.642 -1.791,0.633 M 1.249,-18.288 c -0.503,-0.172 -0.625,-0.404 -0.734,-0.64 -0.354,-0.768 -0.764,-1.518 -1.041,-2.314 -0.896,-2.584 -1.697,-5.202 -3.144,-7.557 -0.168,-0.273 -0.29,-0.59 -0.366,-0.903 -0.164,-0.672 -0.583,-1.139 -1.085,-1.58 -0.536,-0.473 -1.073,-0.962 -1.519,-1.516 -0.585,-0.726 -0.509,-1.729 0.079,-2.324 0.536,-0.542 1.418,-0.645 2.172,-0.248 0.114,0.06 0.223,0.136 0.324,0.217 1.132,0.907 2.168,1.923 2.678,3.301 0.502,1.356 1.174,2.609 1.913,3.838 0.854,1.42 1.338,2.977 1.53,4.606 0.208,1.763 0.132,3.509 -0.807,5.12 m -70.196,-58.619 c -0.47,0.343 -1.035,0.455 -1.583,0.594 -1.648,0.419 -3.332,0.625 -5.016,0.83 -2.544,0.311 -4.999,0.953 -7.305,2.083 -2.516,1.232 -5.033,2.451 -7.137,4.383 -1.295,1.19 -2.734,2.222 -4.123,3.308 -0.303,0.238 -0.658,0.415 -1.005,0.589 -0.082,0.041 -0.266,-0.008 -0.333,-0.08 -0.068,-0.073 -0.108,-0.291 -0.06,-0.334 0.745,-0.679 0.909,-1.52 0.756,-2.471 -0.018,-0.111 0.079,-0.245 0.137,-0.362 0.255,-0.514 0.182,-1.017 -0.063,-1.504 -0.241,-0.479 -0.018,-0.748 0.411,-0.882 0.557,-0.173 1.134,-0.438 1.693,-0.418 1.002,0.037 1.741,-0.409 2.486,-0.958 0.735,-0.543 1.497,-1.048 2.243,-1.576 1.875,-1.328 3.897,-2.383 6.032,-3.215 3.962,-1.542 7.991,-1.791 12.085,-0.556 0.314,0.095 0.632,0.178 0.782,0.569 m 16.363,211.992 c -0.051,0.613 -0.094,1.2 -0.152,1.785 -0.04,0.397 -0.132,0.809 -0.451,1.059 -1.019,0.799 -1.973,1.738 -3.374,1.832 -1.185,0.079 -2.348,-0.059 -3.491,-0.392 -0.521,-0.151 -1.03,-0.379 -1.296,-0.828 -0.763,-1.288 -1.575,-2.582 -1.402,-4.184 0.041,-0.385 0.052,-0.869 0.282,-1.12 1.089,-1.187 2.175,-2.399 3.668,-3.118 0.116,-0.056 0.248,-0.094 0.376,-0.106 1.043,-0.101 2.081,-0.143 3.122,0.076 1.378,0.29 2.193,1.128 2.44,2.484 0.152,0.833 0.191,1.688 0.278,2.512 m 21.528,-208.481 c 0.361,0.147 0.711,0.332 1.084,0.437 3.223,0.914 6.21,2.381 9.161,3.927 0.808,0.423 1.576,0.923 2.353,1.404 0.16,0.099 0.302,0.253 0.4,0.414 0.046,0.074 -0.02,0.229 -0.062,0.338 -0.019,0.05 -0.095,0.088 -0.154,0.114 -0.266,0.121 -0.516,0.017 -0.741,-0.101 -1.69,-0.886 -3.529,-1.353 -5.337,-1.909 -1.309,-0.403 -2.609,-0.834 -3.916,-1.247 -0.448,-0.142 -0.861,-0.272 -0.793,-0.901 0.04,-0.363 -0.316,-0.536 -0.559,-0.734 -0.455,-0.37 -0.93,-0.715 -1.39,-1.08 -0.271,-0.215 -0.128,-0.461 -0.04,-0.676 -0.087,0.075 -0.168,0.158 -0.264,0.22 -0.023,0.014 -0.093,-0.047 -0.141,-0.073 0.133,-0.044 0.266,-0.089 0.399,-0.133 m -67.114,26.852 c 0.163,0.01 0.203,0.06 0.121,0.15 -0.03,-0.048 -0.059,-0.096 -0.089,-0.144 0.263,-0.36 0.458,-0.81 0.799,-1.064 1.208,-0.899 2.341,-2.055 4.088,-1.592 0.168,-0.408 0.639,-0.422 0.905,-0.697 0.648,-0.67 1.36,-0.608 2.152,-0.276 0.847,0.354 1.652,0.775 2.398,1.301 0.411,0.29 1.164,0.533 1.037,1.035 -0.165,0.656 -0.972,0.371 -1.506,0.463 -0.384,0.065 -0.778,0.074 -1.168,0.105 -1.492,0.119 -2.985,0.237 -4.477,0.355 -0.607,0.047 -0.592,-0.33 -0.512,-0.752 -0.771,-0.017 -1.303,0.53 -1.94,0.828 -0.583,0.274 -1.146,0.653 -1.808,0.288 m -4.569,-12.502 c 0.059,-0.226 0.156,-0.406 0.438,-0.361 0.057,-2.219 0.948,-4.113 2.287,-5.828 0.104,-0.133 0.243,-0.079 0.325,0.148 -0.356,1.713 -1.027,3.389 -1.777,5.035 -0.161,0.352 -0.367,0.702 -0.861,0.619 -0.001,0.321 -0.174,0.408 -0.462,0.338 -0.531,1.418 -1.841,2.046 -2.973,3.117 -0.212,-1.213 0.22,-2.076 0.523,-3.203 0.879,0.688 1.691,0.479 2.5,0.135 m 55.421,104.467 c 0.246,0.058 0.509,0.082 0.732,0.188 0.138,0.067 0.325,0.248 0.129,0.439 -0.071,0.068 -0.27,0.093 -0.352,0.042 -0.258,-0.158 -0.62,-0.278 -0.476,-0.712 -0.109,0.005 -0.249,0.055 -0.319,0.005 -0.119,-0.085 -0.067,-0.22 0.08,-0.203 0.077,0.008 0.138,0.156 0.206,0.241 m -91.973,63.307 c 2.156,2.41 4.728,4.303 7.547,5.837 2.418,1.315 4.613,2.954 6.898,4.464 0.543,0.358 1.08,0.748 1.668,1.014 1.379,0.625 2.614,1.454 3.77,2.412 -0.12,-0.12 -0.153,-0.109 -0.101,0.029 0.031,-0.038 0.062,-0.076 0.093,-0.114 -0.451,-0.038 -0.891,-0.036 -1.343,-0.193 -1.79,-0.62 -3.574,-1.24 -5.299,-2.036 -3.916,-1.809 -7.981,-3.251 -12.006,-4.791 -2.872,-1.099 -5.655,-2.371 -8.176,-4.175 -1.487,-1.064 -3.041,-2.037 -4.585,-3.018 -0.715,-0.455 -1.462,-0.866 -2.223,-1.241 -3.107,-1.53 -6.16,-3.159 -9.087,-5.014 -1.603,-1.016 -3.261,-1.925 -4.955,-2.776 -1.341,-0.674 -2.606,-1.514 -3.982,-2.098 -2.233,-0.947 -4.304,-2.184 -6.438,-3.309 -0.401,-0.212 -0.839,-0.366 -1.275,-0.495 -1.561,-0.459 -3.125,-0.91 -4.697,-1.33 -0.364,-0.097 -0.765,-0.058 -1.114,-0.079 -0.304,0.522 0.085,0.805 0.264,1.093 0.592,0.954 1.389,1.75 2.325,2.35 1.538,0.986 3.131,1.887 4.702,2.821 0.673,0.401 1.34,0.81 2.024,1.189 0.454,0.252 0.91,0.572 1.403,0.664 1.127,0.212 2.08,0.735 3.006,1.367 1.517,1.034 3.191,1.782 4.831,2.591 0.76,0.375 1.544,0.722 2.249,1.186 2.902,1.908 6.005,3.433 9.119,4.949 1.331,0.648 2.556,1.509 3.602,2.588 0.339,0.14 0.677,0.279 1.014,0.414 -0.134,-0.087 -0.169,0.021 -0.079,0.031 0.256,0.027 -0.056,0.134 0.054,-0.104 -0.297,-0.176 -0.767,0.074 -0.949,-0.385 -0.559,0.157 -1.022,-0.142 -1.498,-0.337 -4.479,-1.833 -9.05,-3.417 -13.626,-4.982 -3.28,-1.122 -6.602,-2.119 -10.039,-2.645 -1.586,-0.243 -3.188,-0.378 -4.866,-0.571 0.225,0.475 0.543,0.554 0.85,0.671 7.641,2.892 15.282,5.785 22.917,8.692 1.221,0.465 2.436,0.956 3.621,1.506 3.511,1.631 7.197,2.756 10.901,3.835 3.096,0.902 5.956,2.341 8.748,3.919 6.546,3.701 12.893,7.752 19.54,11.276 2.55,1.353 4.939,2.948 7.346,4.514 1.302,0.847 2.671,1.381 4.185,1.515 0.67,0.059 1.272,0.26 1.89,0.465 0.718,0.238 1.247,0.689 1.598,1.359 1.164,2.22 3.127,3.643 5.076,5.077 0.316,0.233 0.682,0.405 0.971,0.665 2.796,2.52 6.215,3.794 9.724,4.897 3.065,0.964 6.205,1.484 9.399,1.837 3.588,0.397 7.175,0.448 10.772,0.459 1.438,0.005 2.875,0.105 4.312,0.151 3.581,0.116 6.999,-0.703 10.37,-1.802 1.117,-0.364 2.228,-0.754 3.363,-1.052 1.364,-0.357 2.567,-0.898 3.46,-2.062 0.513,-0.669 1.175,-1.224 1.762,-1.838 0.846,-0.885 1.819,-1.302 2.99,-0.71 0.524,0.265 0.921,0.277 1.434,-0.061 1.531,-1.008 3.12,-1.914 4.946,-2.314 0.308,-0.067 0.609,-0.247 0.87,-0.436 1.193,-0.866 2.552,-1.237 3.974,-1.557 1.524,-0.342 2.983,-0.959 4.489,-1.393 2.942,-0.848 5.821,-1.894 8.838,-2.52 2.044,-0.424 4.072,-0.918 6.143,-1.208 0.324,-0.045 0.646,-0.136 0.969,-0.14 1.836,-0.023 3.653,-0.225 5.459,-0.54 0.976,-0.169 1.945,-0.202 2.925,-0.006 0.777,0.156 1.561,0.161 2.331,-0.079 0.187,-0.058 0.379,-0.12 0.572,-0.137 3.188,-0.289 6.372,-0.634 9.566,-0.83 2.021,-0.124 4.061,-0.118 6.082,0.005 2.278,0.138 4.568,0.183 6.829,0.595 1.478,0.27 2.999,0.087 4.491,0.362 0.637,0.117 1.528,-0.725 1.66,-1.432 0.148,-0.793 0.068,-1.516 -0.523,-2.19 -0.824,-0.938 -1.709,-1.565 -3.036,-1.416 -0.506,0.058 -1.039,-0.068 -1.554,-0.148 -1.551,-0.238 -3.104,-0.399 -4.673,-0.512 -2.931,-0.212 -5.85,-0.592 -8.773,-0.905 -0.455,-0.048 -0.906,-0.143 -1.362,-0.163 -4.114,-0.178 -8.229,-0.355 -12.344,-0.505 -0.917,-0.034 -1.829,-0.033 -2.723,-0.282 -0.25,-0.069 -0.516,-0.093 -0.777,-0.107 -3.069,-0.161 -6.06,-1.044 -9.152,-0.992 -2.756,-0.745 -5.591,-0.381 -8.383,-0.609 -1.101,-0.091 -2.217,-0.257 -3.276,-0.565 -4.054,-1.178 -7.789,-3.041 -11.187,-5.544 -2.372,-1.748 -4.824,-3.373 -7.303,-4.959 -0.826,-0.529 -1.625,-1.078 -2.375,-1.724 -0.788,-0.678 -1.687,-1.236 -2.577,-1.784 -2.396,-1.473 -4.671,-3.124 -7.009,-4.682 -1.908,-1.272 -3.687,-2.701 -5.524,-4.061 -1.479,-1.095 -2.857,-2.296 -3.847,-3.878 -0.589,-0.943 -1.175,-1.874 -1.278,-3.04 -0.058,-0.663 -0.265,-0.798 -0.888,-0.803 -1.178,-0.011 -2.356,0.013 -3.533,0.035 -0.191,0.004 -0.506,0.02 -0.55,0.123 -0.479,1.098 -1.014,0.344 -1.509,0.054 -0.277,-0.163 -0.55,-0.368 -0.754,-0.614 -1.463,-1.758 -2.955,-3.494 -3.822,-5.661 -0.289,-0.725 -0.653,-1.425 -1.03,-2.111 -0.505,-0.919 -1.03,-1.823 -1.205,-2.878 -0.021,-0.128 -0.037,-0.271 -0.103,-0.377 -0.966,-1.551 -1.916,-3.116 -3.374,-4.28 -0.21,-0.168 -0.441,-0.232 -0.718,-0.245 -2.765,-0.123 -6.951,-0.815 -9.415,-1.571 0.895,-0.183 1.586,-0.347 2.285,-0.461 0.968,-0.157 1.946,-0.25 2.911,-0.423 0.474,-0.085 1.213,0.16 1.341,-0.459 0.105,-0.507 -0.49,-0.898 -0.891,-1.208 -1.032,-0.799 -2.066,-1.611 -3.179,-2.286 -1.896,-1.151 -3.634,-2.545 -5.615,-3.568 -0.629,-0.325 -1.142,-0.869 -1.717,-1.301 -0.47,-0.352 -0.915,-0.763 -1.435,-1.014 -2.499,-1.209 -4.041,-3.263 -5.113,-5.723 -0.704,-1.613 -1.53,-3.184 -1.834,-4.953 -0.088,-0.506 -0.325,-0.991 -0.532,-1.47 -0.211,-0.487 -0.321,-0.981 -0.362,-1.513 -0.169,-2.171 -0.754,-4.209 -1.787,-6.15 -1.325,-2.488 -2.299,-5.122 -2.885,-7.895 -0.16,-0.759 -0.477,-1.492 -0.786,-2.21 -0.674,-1.562 -1.284,-3.136 -1.652,-4.811 -0.237,-1.079 -0.6,-2.149 -1.05,-3.159 -0.883,-1.98 -1.42,-4.068 -2.103,-6.112 -1.472,-4.41 -2.529,-8.93 -3.587,-13.444 -1.087,-4.642 -2.289,-9.262 -2.989,-13.994 -0.224,-1.513 -0.332,-2.932 0.026,-4.443 0.407,-1.712 0.57,-3.483 0.835,-5.229 0.068,-0.45 0.183,-0.871 0.67,-1.371 0.288,2.043 0.022,3.945 0.638,5.806 0.457,-0.227 0.486,-0.68 0.605,-1.073 1.546,-5.133 3.08,-10.269 4.64,-15.397 0.573,-1.881 1.402,-3.66 2.257,-5.428 0.356,-0.736 0.816,-1.303 1.588,-1.643 1.513,-0.668 2.782,-1.685 3.984,-2.817 0.95,-0.895 2.043,-1.637 2.998,-2.527 1.097,-1.021 2.142,-2.052 3.752,-2.229 0.336,-0.037 0.634,-0.428 0.95,-0.656 -0.43,-1.214 0.718,-1.106 1.262,-1.409 0.616,-0.344 1.33,-0.535 2.081,-0.415 0.846,0.136 1.688,0.2 2.442,-0.355 0.097,-0.071 0.249,-0.079 0.378,-0.09 3.056,-0.271 6.115,-0.769 9.156,0.137 0.626,0.186 1.268,0.319 1.905,0.469 1.196,0.282 2.338,0.091 3.435,-0.422 0.265,-0.124 0.363,-0.358 0.229,-0.641 -0.112,-0.236 -0.257,-0.457 -0.363,-0.695 -0.282,-0.638 -0.273,-0.67 0.321,-1.113 0.261,-0.195 0.538,-0.369 0.808,-0.552 l -0.052,0.047 c -0.452,0.033 -0.904,0.058 -1.355,0.101 -0.952,0.092 -1.143,-0.018 -1.165,-0.98 -0.012,-0.517 -0.148,-0.663 -0.65,-0.672 -0.962,-0.017 -1.647,-0.712 -2.445,-1.12 -0.428,-0.219 -1.013,-0.308 -1.131,-0.925 0.002,0.002 -0.038,0.055 -0.038,0.055 0.843,-0.225 1.729,0.257 2.56,-0.159 l 0.035,0.075 c -0.883,-0.509 -1.869,-0.869 -2.658,-1.709 0.807,-0.201 1.414,0.157 2.058,0.186 0.587,0.027 1.169,0.143 1.755,0.186 1.435,0.104 2.871,0.182 4.306,0.285 0.481,0.034 0.901,-0.051 1.254,-0.406 0.762,-0.765 1.737,-1.141 2.732,-1.483 0.48,-0.165 1.046,-0.169 1.342,-0.706 0.11,-0.199 0.32,-0.131 0.514,-0.116 1.165,0.087 2.339,0.094 3.493,0.256 1.056,0.148 2.085,0.126 3.117,-0.082 0.901,-0.182 1.804,-0.298 2.724,-0.314 0.388,-0.007 0.794,-0.039 1.159,-0.159 2.39,-0.784 4.875,-0.818 7.346,-1.017 1.498,-0.121 2.695,0.298 3.645,1.46 0.11,0.135 0.308,0.197 0.455,0.286 0.345,-0.28 0.187,-0.614 0.217,-0.914 0.058,-0.575 -0.291,-0.83 -0.76,-0.961 -1.195,-0.334 -2.392,-0.663 -3.595,-0.963 -2.218,-0.553 -4.453,-1.043 -6.658,-1.643 -0.914,-0.249 -1.874,-0.523 -2.561,-1.333 1.024,-0.977 2.359,-1.121 3.746,-1.629 -0.693,-0.367 -1.265,-0.251 -1.805,-0.25 -3.532,10e-4 -7.063,0.023 -10.595,0.031 -1.252,0.003 -2.486,-0.102 -3.613,-0.726 -0.228,-0.126 -0.463,-0.249 -0.55,-0.647 2.046,-0.576 4.067,-1.152 6.258,-0.794 1.74,0.285 3.501,0.453 5.258,0.616 1.963,0.183 3.875,0.557 5.702,1.309 0.68,0.279 1.387,0.323 2.11,0.364 2.157,0.123 4.285,0.428 6.371,1.036 1.969,0.573 3.834,1.33 5.364,2.731 0.44,0.402 0.88,0.502 1.43,0.395 2.205,-0.431 4.425,-0.42 6.634,-0.087 1.001,0.151 1.824,-0.25 2.59,-0.705 1.595,-0.947 3.353,-1.452 5.072,-2.063 0.732,-0.26 1.5,-0.416 2.264,-0.623 -0.247,-0.636 -0.812,-0.744 -1.263,-0.961 -2.061,-0.993 -4.147,-1.932 -6.206,-2.927 -0.44,-0.213 -1.028,-0.258 -1.241,-0.83 -0.11,-0.072 -0.372,0.162 -0.349,-0.172 0.101,0.072 0.202,0.144 0.303,0.216 0.676,-0.061 1.284,0.213 1.902,0.407 2.991,0.942 5.933,2.023 8.716,3.473 1.087,0.566 2.173,0.8 3.374,0.753 0.846,-0.032 1.699,0.01 2.543,0.082 0.646,0.056 1.289,0.184 1.922,0.329 0.665,0.152 1.086,0.505 0.966,0.745 -0.245,0.487 -0.719,0.526 -1.179,0.532 -2.09,0.025 -4.181,-0.009 -6.269,0.061 -3.114,0.105 -6.058,0.873 -8.721,2.535 -1.195,0.745 -2.56,0.956 -3.872,1.303 -0.965,0.256 -1.863,0.586 -2.675,1.149 -0.962,0.667 -1.995,1.222 -2.967,1.878 -0.945,0.637 -2.136,1 -3.271,1.247 -2.137,0.465 -3.848,1.639 -5.352,3.089 -1.929,1.858 -3.704,3.861 -4.612,6.484 -0.273,0.787 -0.817,1.478 -1.21,2.227 -0.619,1.18 -0.582,2.522 -0.897,3.774 0.059,-0.139 -0.047,-0.153 -0.038,-0.078 0.032,0.256 -0.133,-0.041 0.113,0.048 -0.068,-0.429 -0.137,-0.859 -0.237,-1.486 -0.718,0.754 -0.815,1.619 -1.419,2.34 1.13,0.278 1.953,-0.437 2.98,-0.313 -0.804,1.46 -1.587,2.786 -2.537,4.014 -1.362,1.758 -2.699,3.535 -4.05,5.301 -0.843,1.103 -1.468,2.279 -1.724,3.684 -0.338,1.862 -0.852,3.692 -1.257,5.543 -0.108,0.492 -0.311,1.008 -0.049,1.515 0.444,0.146 0.757,-0.128 1.1,-0.294 1.176,-0.571 2.353,-1.139 3.526,-1.714 0.543,-0.266 1.004,-0.215 1.389,0.337 -0.193,0.241 -0.422,0.474 -0.589,0.744 -0.689,1.119 -0.24,2.243 1.049,2.549 0.697,0.166 1.419,0.232 2.132,0.324 1.426,0.182 2.856,0.333 4.279,0.533 0.62,0.087 1.265,0.148 1.968,0.523 -0.803,0.286 -1.454,0.174 -2.093,0.178 -3.924,0.025 -7.848,0.034 -11.772,0.05 -0.393,0.002 -0.785,0.018 -1.177,0.033 -0.37,0.015 -0.604,0.202 -0.678,0.57 -0.077,0.385 -0.264,0.792 -0.2,1.153 0.366,2.06 0.095,4.167 0.564,6.225 0.547,2.399 0.413,2.01 2.468,2.16 1.435,0.105 2.866,0.254 4.301,0.354 0.534,0.037 1.021,0.192 1.506,0.394 3.801,1.581 7.603,3.158 11.407,4.732 0.303,0.126 0.58,0.262 0.786,0.698 -0.915,0.154 -1.724,0.324 -2.543,0.421 -3.7,0.442 -7.405,0.838 -11.102,1.304 -1.332,0.168 -2.6,0.101 -3.838,-0.433 -0.299,-0.129 -0.615,-0.223 -0.93,-0.306 -0.504,-0.134 -0.777,0.102 -0.662,0.585 0.544,2.291 1.188,4.549 2.038,6.751 0.336,0.872 0.835,1.375 1.752,1.64 4.331,1.248 8.645,2.557 12.965,3.843 0.612,0.183 1.226,0.359 1.857,0.544 -0.193,0.504 -0.555,0.399 -0.833,0.434 -1.816,0.227 -3.634,0.433 -5.45,0.654 -0.722,0.088 -1.407,0.314 -2.024,0.699 -0.779,0.485 -1.203,1.18 -1.142,2.127 0.069,1.057 0.807,1.821 1.872,1.923 0.596,0.057 1.164,-0.078 1.736,-0.237 2.154,-0.598 4.378,-0.735 6.585,-0.973 0.384,-0.042 0.777,-0.006 1.249,-0.006 -0.11,0.682 -0.683,0.804 -1.03,1.114 -0.618,0.553 -1.004,1.192 -0.994,2.042 0.014,1.16 0.776,1.991 1.926,2.061 0.257,0.016 0.524,-0.01 0.778,-0.061 0.444,-0.09 0.88,-0.217 1.322,-0.317 0.049,-0.012 0.118,0.047 0.173,0.082 0.054,0.034 0.116,0.068 0.149,0.119 0.278,0.431 0.684,0.793 0.756,1.355 -0.27,0.433 -0.675,0.256 -1.02,0.198 -2.448,-0.417 -4.892,-0.856 -7.338,-1.28 -0.691,-0.119 -0.804,-0.076 -1.044,0.546 -0.427,1.103 -0.889,2.194 -1.681,3.082 -0.339,0.38 -0.078,0.94 -0.418,1.19 -0.297,0.218 -0.708,0.27 -0.963,0.61 -0.668,0.888 -1.357,1.759 -2.045,2.631 -0.213,0.268 -0.303,0.566 -0.332,0.9 -0.11,1.302 -0.2,2.607 -0.355,3.903 -0.101,0.844 -0.023,1.553 0.834,1.978 0.168,0.083 0.303,0.244 0.431,0.388 0.169,0.19 0.058,0.435 -0.093,0.482 -0.369,0.114 -0.764,0.166 -1.151,0.195 -1.106,0.083 -2.212,0.15 -3.264,0.454 -0.117,0.61 0.245,0.922 0.626,1.156 0.618,0.38 1.196,0.787 1.6,1.403 l -0.021,-0.039 c 0.073,-0.385 0.139,-0.771 0.222,-1.154 0.04,-0.181 0.099,-0.397 0.356,-0.328 0.212,0.056 0.285,0.25 0.285,0.453 -0.002,0.514 0.183,1.031 10e-4,1.527 -0.062,0.058 -0.105,0.132 -0.153,0.136 -0.994,0.081 -1.989,0.195 -2.545,1.177 -0.635,1.122 -1.016,2.403 -0.425,3.563 0.613,1.203 0.215,2.126 -0.276,3.125 -0.778,1.583 -1.578,3.155 -2.356,4.738 -0.638,1.298 -1.457,2.45 -2.422,3.54 -1.473,1.664 -2.799,3.472 -3.798,5.46 -1.023,2.038 -2.056,4.067 -3.179,6.051 -0.328,0.58 -0.53,1.192 -0.669,1.831 -0.16,0.735 0.05,0.964 0.782,0.868 1.491,-0.196 2.98,-0.402 4.47,-0.598 0.429,-0.057 0.715,-0.248 0.829,-0.695 0.243,-0.946 0.705,-1.824 0.818,-2.817 0.058,-0.507 0.276,-1 0.455,-1.488 0.563,-1.535 1.553,-2.878 2.014,-4.46 2.397,-3.421 3.926,-7.377 6.637,-10.618 1.464,-1.75 2.703,-3.687 4.043,-5.541 0.189,-0.262 0.42,-0.506 0.39,-0.995 -1.474,-0.319 -2.982,-0.645 -4.691,-1.014 0.882,-0.511 1.667,-0.477 2.414,-0.556 0.975,-0.104 1.956,-0.16 2.935,-0.208 0.779,-0.038 1.341,-0.376 1.792,-1.018 1.052,-1.497 2.179,-2.943 3.214,-4.452 0.71,-1.037 1.541,-1.94 2.495,-2.747 0.898,-0.759 1.762,-1.557 2.668,-2.307 0.354,-0.293 0.406,-0.576 0.312,-1.015 -0.422,-1.955 0.259,-3.379 2.136,-4.001 1.639,-0.543 2.678,-1.777 3.989,-2.792 -0.591,-0.712 -1.14,-1.337 -1.648,-1.993 -0.51,-0.658 -1.12,-1.263 -1.387,-2.16 1.606,-0.613 3.244,-0.658 4.836,-0.931 0.564,-0.097 1.057,0.168 1.439,0.504 0.954,0.836 1.689,0.498 2.566,-0.188 1.084,-0.848 2.125,-1.714 3.033,-2.756 0.511,-0.587 1.126,-1.092 1.733,-1.587 2.024,-1.653 4.06,-3.292 6.102,-4.923 2.544,-2.031 4.597,-4.448 5.95,-7.431 0.378,-0.833 0.715,-1.691 1.171,-2.48 0.773,-1.339 1.109,-2.772 1.224,-4.294 0.068,-0.91 0.222,-1.817 0.389,-2.715 0.071,-0.378 0.263,-0.736 0.425,-1.092 0.107,-0.237 0.287,-0.475 0.564,-0.433 0.159,0.025 0.33,0.217 0.425,0.375 0.593,0.989 0.71,2.099 0.709,3.215 0,0.651 -0.016,1.332 -0.202,1.946 -0.629,2.083 -0.747,4.247 -1.064,6.375 -0.326,2.185 -0.94,4.184 -2.484,5.835 -0.758,0.81 -1.427,1.702 -2.151,2.544 -0.864,1.005 -1.396,2.07 -0.677,3.383 0.338,0.617 0.09,1.29 0.214,1.927 0.076,0.389 0.3,0.543 0.675,0.537 0.458,-0.009 0.876,-0.049 1.28,-0.358 2.522,-1.929 4.735,-4.117 6.123,-7.029 0.14,-0.294 0.279,-0.596 0.467,-0.858 C -0.44,16.135 1.353,13.02 3.055,9.85 3.148,9.678 3.256,9.513 3.368,9.353 3.507,9.157 3.897,9.193 4.022,9.432 c 0.274,0.519 0.52,1.053 0.787,1.577 0.702,1.379 2.026,1.511 3.34,1.627 0.166,0.014 0.318,-0.24 0.273,-0.443 C 8.267,11.493 8.094,10.797 7.91,10.104 7.825,9.788 7.708,9.482 7.865,9.164 7.579,9.216 7.354,9.161 7.254,8.859 7.082,8.773 6.91,8.686 6.737,8.6 6.612,8.459 6.486,8.319 6.361,8.179 6.394,8.084 6.134,7.987 6.362,7.893 6.342,8.001 6.322,8.109 6.306,8.214 6.571,8.23 6.732,8.338 6.699,8.626 6.939,8.6 7.15,8.619 7.208,8.91 c 0.213,0.088 0.426,0.175 0.639,0.262 0.24,0.547 0.781,0.669 1.257,0.852 1.481,0.572 2.697,1.58 4.041,2.369 2.36,1.384 3.77,3.567 5.211,5.707 0.893,1.327 1.924,1.84 3.447,1.642 1.701,-0.221 3.289,-0.836 4.905,-1.349 1.114,-0.354 1.909,-1.99 0.94,-3.043 C 27.475,15.162 27.392,14.894 27.241,14.681 25.721,12.537 24.806,10.084 23.692,7.733 23.244,6.788 22.802,5.84 22.371,4.887 21.854,3.748 21.201,2.702 20.369,1.762 19.807,1.126 19.283,0.451 19.099,-0.41 c -0.046,-0.214 0.093,-0.376 0.296,-0.425 0.109,-0.026 0.284,-0.004 0.354,0.069 0.178,0.184 0.33,0.4 0.463,0.62 0.965,1.588 2.189,2.906 3.775,3.909 1.545,0.977 2.977,2.119 4.286,3.305 0.418,-0.019 0.517,-0.26 0.542,-0.524 0.051,-0.543 0.241,-0.966 0.684,-1.341 1.052,-0.892 1.07,-2.028 0.56,-3.211 -0.206,-0.478 -0.498,-0.919 -0.738,-1.383 -0.364,-0.705 -0.664,-1.391 -0.322,-2.235 0.317,-0.781 -0.024,-1.557 -0.348,-2.267 -0.269,-0.59 -0.633,-1.145 -1.009,-1.677 -3.135,-4.436 -6.357,-8.807 -10.106,-12.753 -0.828,-0.872 -1.449,-1.837 -1.922,-2.926 -0.989,-2.279 -1.969,-4.563 -3.008,-6.819 -0.477,-1.037 -0.709,-2.071 -0.628,-3.22 0.121,-1.697 0.066,-3.4 -0.111,-5.095 -0.054,-0.506 -0.332,-0.715 -0.789,-0.593 -0.502,0.135 -0.991,0.319 -1.482,0.478 0.023,-0.132 -0.068,-0.113 -0.04,-0.046 0.102,0.238 -0.166,0.003 0.096,0.007 0.225,-0.551 0.772,-0.679 1.232,-0.884 0.574,-0.255 0.765,-0.646 0.689,-1.242 -0.241,-1.897 -0.824,-3.692 -1.592,-5.433 -0.126,-0.285 -0.2,-0.635 -0.696,-0.681 -0.472,3.738 -0.635,7.508 -1.203,11.207 -0.516,0.056 -0.642,-0.278 -0.806,-0.533 -0.814,-1.264 -1.617,-2.535 -2.419,-3.806 -0.175,-0.276 -0.409,-0.543 -0.484,-0.847 -0.288,-1.162 -0.804,-2.134 -1.767,-2.912 -0.509,-0.411 -0.581,-1.13 -0.567,-1.813 0.028,-1.307 0.04,-2.616 10e-4,-3.922 -0.042,-1.437 -0.146,-2.871 -0.228,-4.306 -0.07,-1.22 -0.52,-2.243 -1.384,-3.149 -3.522,-3.693 -6.622,-7.737 -9.708,-11.796 -0.888,-1.168 -1.354,-2.326 -1.109,-3.779 0.118,-0.707 0.147,-1.429 0.195,-2.145 0.02,-0.289 -0.137,-0.516 -0.433,-0.538 -0.52,-0.039 -1.044,-0.042 -1.566,-0.044 -3.334,-0.008 -6.669,-0.027 -10.003,-0.007 -0.936,0.006 -1.797,-0.164 -2.653,-0.549 -1.13,-0.509 -2.301,-0.929 -3.457,-1.378 -0.25,-0.097 -0.484,-0.182 -0.475,-0.507 -0.061,0.017 -0.121,0.048 -0.177,0.04 -0.046,-0.007 -0.087,-0.058 -0.13,-0.09 0.091,0.031 0.181,0.062 0.271,0.093 0.916,-0.177 1.831,-0.024 2.737,0.059 3.843,0.35 7.685,0.717 11.52,1.14 1.164,0.128 2.306,0.459 3.458,0.693 0.691,0.14 0.711,0.146 1.103,-0.658 0.179,-0.365 0.377,-0.497 0.744,-0.29 0.22,0.123 0.439,0.245 0.663,0.37 0.335,-0.53 0.018,-0.928 -0.117,-1.346 -0.13,-0.404 -0.384,-0.647 -0.82,-0.741 -0.285,-0.061 -0.351,-0.349 -0.386,-0.616 -0.033,-0.26 -0.057,-0.522 -0.112,-0.777 -0.254,-1.181 -0.942,-1.983 -2.089,-2.392 -0.553,-0.198 -1.088,-0.445 -1.643,-0.639 -0.551,-0.193 -0.873,-0.542 -0.929,-1.133 -0.018,-0.194 -0.07,-0.386 -0.112,-0.577 -0.11,-0.509 -0.431,-0.574 -0.878,-0.443 -0.165,0.048 -0.357,0.008 -0.608,0.008 0,-2.128 0.004,-4.215 -0.002,-6.302 -0.002,-0.719 -0.015,-1.439 -0.047,-2.157 -0.02,-0.459 -0.301,-0.731 -0.749,-0.732 -1.633,-0.003 -3.272,-0.107 -4.895,0.171 -1.447,0.248 -1.846,0.768 -1.808,2.283 0.037,1.438 0.067,2.876 0.101,4.315 0.029,1.19 -0.252,2.336 -0.491,3.489 -0.134,0.649 -0.489,1.026 -1.152,1.162 -2.047,0.418 -4.076,0.843 -6.202,0.777 -2.613,-0.08 -5.233,0.039 -7.85,0.08 -1.574,0.024 -3.133,-0.065 -4.681,-0.399 -1.845,-0.397 -3.702,-0.737 -5.596,-0.715 0.022,-0.491 0.298,-0.516 0.53,-0.594 1.36,-0.463 2.718,-0.933 4.081,-1.387 1.683,-0.56 3.392,-0.987 5.185,-0.956 0.261,0.004 0.524,-0.004 0.784,-0.033 0.197,-0.023 0.404,-0.121 0.387,-0.344 -0.013,-0.179 -0.1,-0.391 -0.227,-0.514 -0.443,-0.429 -1.001,-0.598 -1.612,-0.601 -0.916,-0.003 -1.832,-0.021 -2.748,-0.005 -2.028,0.034 -4.055,0.089 -6.083,0.129 -0.586,0.011 -1.169,0.046 -1.654,-0.42 -0.699,-0.671 -1.608,-0.714 -2.392,-0.365 -2.041,0.908 -4.208,0.873 -6.348,0.999 -6.641,0.39 -13.084,1.712 -19.335,3.975 -0.746,0.27 -1.496,0.394 -2.287,0.46 -1.012,0.085 -1.697,-0.091 -2.185,-1.119 -0.421,-0.889 -1.347,-1.192 -2.341,-1.089 -0.38,0.04 -0.745,0.281 -1.232,0.025 -0.182,-1.697 0.403,-3.403 0.45,-5.204 -1.726,-0.282 -3.353,-0.173 -4.976,-0.132 -0.294,0.008 -0.44,0.248 -0.464,0.531 -0.044,0.538 -0.276,0.996 -0.531,1.46 -1.071,1.946 -2.124,3.902 -3.177,5.858 -0.091,0.169 -0.14,0.362 -0.191,0.549 -0.142,0.522 0.662,1.009 0.208,1.428 -0.34,0.314 -0.992,0.264 -1.448,0.491 -0.262,0.129 -0.432,0.473 -0.605,0.745 -0.739,1.159 -1.471,2.321 -2.188,3.493 -0.292,0.477 -0.669,0.765 -1.239,0.848 -0.646,0.094 -1.278,0.278 -1.922,0.387 -0.844,0.143 -0.938,0.047 -0.878,-0.744 0.035,-0.455 0.129,-0.921 0.066,-1.363 -0.097,-0.695 -0.517,-1.199 -1.212,-1.4 -0.702,-0.203 -1.29,0.042 -1.769,0.558 -0.416,0.448 -0.598,1.02 -0.703,1.598 -0.28,1.543 -0.569,3.086 -0.77,4.641 -0.361,2.788 -0.649,5.585 -0.994,8.376 -0.089,0.718 -0.071,1.427 -0.067,2.146 0.01,1.96 -0.007,3.922 -0.947,5.744 -0.262,0.508 -0.359,1.12 -0.444,1.697 -0.12,0.806 -0.456,1.472 -0.971,2.1 -1.783,2.176 -3.543,4.371 -5.29,6.575 -0.609,0.768 -1.175,1.571 -1.724,2.383 -0.251,0.371 -0.578,0.808 -0.373,1.261 0.183,0.403 0.135,0.601 -0.249,0.727 -0.486,0.159 -0.689,0.559 -0.915,0.964 -1.498,2.682 -3.325,5.149 -5.015,7.706 -0.719,1.088 -1.296,2.269 -1.962,3.394 -0.255,0.43 -0.172,0.721 0.237,0.961 0.169,0.098 0.362,0.171 0.502,0.302 0.196,0.184 0.309,0.42 0.104,0.679 -0.404,0.511 -0.761,1.119 -1.539,1.045 -0.739,-0.07 -0.979,0.368 -1.27,0.95 -1.066,2.133 -1.422,4.474 -2.075,6.727 -0.054,0.187 -0.098,0.384 -0.102,0.578 -0.065,3.072 -0.192,6.147 0.499,9.18 0.508,2.231 0.666,4.524 1.231,6.75 0.867,3.421 1.543,6.895 2.526,10.282 0.67,2.31 1.518,4.59 2.657,6.74 0.979,1.847 1.991,3.677 2.795,5.616 0.6,1.445 1.579,2.7 2.095,4.205 1.21,3.529 2.823,6.889 4.42,10.255 0.531,1.118 0.954,2.296 1.328,3.479 0.688,2.179 1.302,4.381 1.948,6.573 0.055,0.188 0.097,0.383 0.179,0.559 1.694,3.633 2.615,7.522 3.733,11.345 0.296,1.012 0.681,1.978 1.194,2.893 0.246,0.438 0.221,0.72 -0.326,0.831 -0.047,0.009 -0.101,0.096 -0.112,0.154 -0.514,2.732 -2.09,5.057 -2.931,7.664 -0.137,0.424 -0.402,0.814 -0.305,1.339 0.421,0.116 0.866,0.208 1.288,0.362 0.639,0.234 1.115,0.678 1.42,1.287 0.157,0.313 0.208,0.691 -0.185,0.823 -1.505,0.503 -1.653,1.692 -1.59,3.005 0.012,0.261 0.01,0.532 0.082,0.779 0.316,1.094 0.315,2.159 0.023,3.279 -0.193,0.741 -0.107,1.559 -0.121,2.342 -0.005,0.318 -0.009,0.667 0.349,0.849 0.309,0.156 0.341,0.373 0.075,0.578 -0.506,0.39 -0.42,0.921 -0.373,1.436 0.135,1.505 0.467,2.97 0.922,4.409 0.118,0.373 0.238,0.736 -0.035,1.114 -0.163,0.228 -0.677,0.299 -0.419,0.728 0.184,0.308 0.567,0.266 0.879,0.34 1.589,0.376 3.179,0.754 4.766,1.139 0.238,0.058 0.538,0.032 0.637,0.441 -1.179,0.075 -2.355,0.081 -3.51,0.241 -1.122,0.156 -2.213,0.093 -3.32,-0.058 -0.622,-0.084 -0.829,0.084 -0.913,0.719 -0.077,0.582 -0.116,1.172 -0.12,1.759 -0.015,2.695 0.218,5.359 1.171,7.911 0.256,0.683 0.273,1.371 0.307,2.097 0.106,2.285 0.434,4.552 0.916,6.795 0.231,1.072 0.565,2.133 0.599,3.223 -0.49,0.159 -0.684,-0.148 -0.908,-0.347 -1.083,-0.967 -2.239,-1.807 -3.661,-2.212 -1.01,-0.287 -1.589,-1.102 -2.233,-1.837 -0.129,-0.147 -0.244,-0.315 -0.398,-0.428 -0.08,-0.059 -0.242,-0.052 -0.35,-0.018 -0.152,0.047 -0.176,0.177 -0.122,0.326 0.211,0.57 0.629,0.985 1.045,1.401 0.414,0.415 0.876,0.788 1.121,1.347 0.926,2.115 2.294,3.954 3.624,5.818 0.597,0.837 1.18,1.684 1.858,2.807 -1.078,-0.174 -1.708,-0.637 -2.302,-1.082 -1.993,-1.493 -4.134,-2.753 -6.249,-4.054 -0.111,-0.069 -0.239,-0.116 -0.336,-0.2 -2.155,-1.838 -4.731,-3.021 -7.082,-4.553 -3.072,-2.002 -6.315,-3.713 -9.622,-5.282 -1.526,-0.724 -3.19,-1.16 -4.799,-1.703 -0.363,-0.123 -0.76,-0.229 -1.13,0.026 z"
             style="fill:#000000;fill-opacity:1;fill-rule:nonzero;stroke:none"
             id="path22" /></g><g
           id="g24"
           transform="translate(332.3331,319.1595)"><path
             d="M 0,0 C 0.376,-0.04 0.672,-0.095 0.967,-0.094 1.163,-0.093 1.495,-0.218 1.464,0.165 1.459,0.238 1.144,0.329 0.969,0.334 0.66,0.343 0.336,0.338 0,0 m 24.867,-28.878 c -1.885,0.3 -7.286,-0.057 -9.091,-0.601 4.695,-0.582 7.68,-0.384 9.091,0.601 M 15.217,1.349 C 12.271,1.296 9.812,1.093 7.354,0.895 6.982,0.865 6.56,0.877 6.262,0.501 6.6,-0.077 7.154,-0.145 7.734,-0.098 c 2.077,0.167 4.136,0.462 6.178,0.873 0.302,0.061 0.579,0.249 1.305,0.574 M 6.92,-13.856 c 0.015,0 0.03,10e-4 0.046,0.002 0.016,-0.261 0.041,-0.522 0.048,-0.783 0.087,-3.198 0.185,-6.392 0.791,-9.55 0.118,-0.616 0.26,-1.165 0.844,-1.444 1.131,-0.54 2.314,-0.892 3.59,-0.749 0.735,0.082 1.046,0.354 1.226,1.055 0.064,0.252 0.084,0.515 0.134,0.772 1.143,5.862 0.788,11.701 -0.267,17.53 -0.182,1.005 -0.702,1.837 -1.357,2.565 -1.021,1.137 -2.523,1.051 -3.563,-0.073 -1.216,-1.316 -1.835,-2.808 -1.696,-4.627 0.12,-1.562 0.14,-3.132 0.204,-4.698 m 14.607,-5.687 c 0.355,-0.479 0.762,-0.312 1.121,-0.31 1.308,0.005 2.617,0.037 3.925,0.043 0.478,0.003 0.69,-0.288 0.699,-0.745 0.003,-0.131 0.003,-0.262 -0.007,-0.392 -0.231,-3.091 0.298,-2.753 -2.741,-2.939 -0.391,-0.024 -0.782,-0.073 -1.17,-0.132 -0.119,-0.018 -0.229,-0.107 -0.459,-0.221 1.002,-0.718 2.025,-1.13 3.211,-1.153 0.471,-0.009 0.678,-0.306 0.669,-0.775 -0.016,-0.869 -0.291,-1.672 -0.629,-2.453 -0.364,-0.84 -0.828,-1.642 -1.13,-2.502 -0.373,-1.061 -0.913,-1.87 -2.111,-2.037 -0.177,-0.025 -0.27,-0.131 -0.173,-0.257 0.066,-0.085 0.236,-0.087 0.357,-0.133 0.238,-0.088 0.287,-0.264 0.152,-0.457 -0.533,-0.758 -1.229,-1.347 -1.981,-1.878 -0.456,-0.322 -0.975,-0.328 -1.5,-0.358 -2.482,-0.143 -4.962,-0.307 -7.444,-0.445 -1.36,-0.076 -2.684,-0.364 -4.026,-0.721 1.427,-0.1 2.854,-0.217 4.282,-0.297 1.432,-0.08 2.867,-0.123 4.452,-0.189 -0.541,-0.561 -1.123,-0.624 -1.677,-0.667 -1.956,-0.152 -3.914,-0.289 -5.873,-0.386 -1.188,-0.059 -2.353,0.157 -3.453,0.613 -1.991,0.825 -4.011,1.613 -5.511,3.27 -0.131,0.145 -0.271,0.284 -0.395,0.435 -0.181,0.218 -0.074,0.557 0.19,0.588 0.649,0.076 1.301,0.131 1.949,0.21 0.254,0.031 0.509,0.091 0.662,0.362 0.019,0.402 -0.319,0.314 -0.532,0.323 -0.915,0.036 -1.832,0.067 -2.747,0.053 -0.571,-0.009 -0.982,0.2 -1.368,0.614 -0.496,0.533 -0.947,1.076 -1.198,1.77 -0.223,0.614 -0.559,1.202 -0.69,1.833 -0.479,2.3 -1.098,4.575 -1.333,6.923 -0.104,1.041 -0.111,2.102 -0.327,3.12 -0.566,2.671 -0.06,5.34 -0.091,8.009 -0.008,0.619 0.176,0.747 0.849,0.818 2.601,0.273 5.202,0.542 7.804,0.817 0.319,0.033 0.636,0.089 0.981,0.139 -0.224,0.667 -0.763,0.526 -1.165,0.542 -2.092,0.083 -4.185,0.134 -6.278,0.173 -2.399,0.045 -2.461,-0.057 -2.095,2.484 0.792,5.495 3.434,9.826 8.576,12.346 2.067,1.013 4.257,1.732 6.537,1.995 2.286,0.263 4.569,0.111 6.719,-0.905 0.938,-0.443 1.803,-1.035 2.854,-1.264 0.407,-0.089 0.786,-0.467 1.104,-0.787 2.131,-2.155 4.086,-4.43 4.834,-7.482 0.046,-0.19 0.102,-0.383 0.191,-0.555 1.08,-2.082 1.279,-4.321 1.488,-6.627 0.205,-2.272 0.393,-4.547 0.433,-6.817 0.069,-3.869 0.409,-3.069 -2.986,-3.347 -0.963,-0.079 -1.943,-0.017 -2.949,-0.249"
             style="fill:#000000;fill-opacity:1;fill-rule:nonzero;stroke:none"
             id="path26" /></g><g
           id="g28"
           transform="translate(317.5418,235.9827)"><path
             d="m 0,0 c 0,-0.029 0.001,-0.057 0.001,-0.086 h 1.768 c 0,0.029 0,0.057 0,0.086 z m -18.559,12.15 c -0.442,0.095 -0.63,0.141 -0.82,0.174 -0.353,0.063 -0.609,0.211 -0.61,0.622 -0.003,0.785 -0.013,1.57 -0.019,2.355 -0.004,0.475 0.262,0.73 0.706,0.765 0.651,0.051 1.307,0.049 1.959,0.088 0.447,0.027 0.921,-0.095 1.458,0.301 -0.821,0.274 -1.574,0.361 -2.331,0.44 -0.388,0.04 -0.781,0.081 -1.159,0.176 -0.333,0.084 -0.55,0.334 -0.634,0.678 -0.016,0.063 -0.023,0.129 -0.024,0.194 -0.052,1.834 -0.312,2.638 2.231,2.658 1.702,0.014 3.403,0.03 5.104,0.006 0.733,-0.011 1.435,0.052 2.095,0.384 0.16,0.08 0.418,0.142 0.283,0.389 -0.082,0.149 -0.27,0.302 -0.434,0.335 -1.416,0.287 -2.852,0.35 -4.294,0.363 -1.308,0.011 -2.618,0.04 -3.921,0.142 -0.931,0.073 -1.127,0.324 -1.18,1.229 -0.035,0.587 -0.045,1.179 -0.007,1.765 0.083,1.315 -0.077,2.61 -0.213,3.913 -0.161,1.53 0.567,2.322 2.11,2.407 0.324,0.018 0.678,0.048 0.974,-0.055 0.906,-0.315 1.795,-0.243 2.708,-0.057 0.378,0.077 0.811,0.143 1.165,0.036 2.329,-0.707 4.67,-0.225 7.005,-0.119 0.914,0.042 1.824,0.163 2.737,0.226 2.063,0.143 4.06,-0.251 5.96,-0.982 1.97,-0.758 3.711,-1.97 5.129,-3.527 C 8.15,26.253 8.751,25.263 9.045,24.177 9.336,23.106 9.508,22.005 9.941,20.973 10.077,20.648 9.811,20.432 9.585,20.386 8.69,20.205 7.78,20.094 6.879,19.941 4.558,19.548 2.237,19.161 -0.079,18.742 c -0.82,-0.149 -1.504,-0.141 -2.1,0.604 -0.783,0.977 -1.988,1.247 -3.138,1.467 -0.89,0.17 -1.822,0.156 -2.736,0.16 -0.634,0.002 -0.974,-0.298 -1.134,-0.882 -0.086,-0.313 -0.147,-0.64 -0.162,-0.964 -0.083,-1.769 0.002,-3.535 0.181,-5.293 0.105,-1.038 0.565,-1.449 1.655,-1.604 1.186,-0.169 2.348,0.041 3.501,0.292 2.311,0.502 2.833,1.119 2.92,3.431 0.002,0.066 -0.003,0.132 0.007,0.196 0.104,0.623 -0.378,1.392 0.208,1.852 0.516,0.405 1.262,0.151 1.906,0.192 2.219,0.143 4.44,0.263 6.661,0.387 0.326,0.018 0.654,0.015 0.981,0.018 1.855,0.022 1.939,-0.025 1.851,-1.802 C 10.411,14.519 9.668,12.466 8.213,10.678 7.349,9.615 6.58,8.48 5.625,7.482 4.919,6.744 5.008,6.223 5.784,5.457 8.192,3.08 9.577,0.194 10.176,-3.118 c 0.257,-1.418 0.477,-2.833 0.597,-4.27 0.087,-1.04 0.192,-2.08 0.467,-3.101 0.237,-0.885 0.307,-1.806 0.212,-2.728 -0.081,-0.793 -0.482,-1.344 -1.268,-1.562 -0.377,-0.104 -0.776,-0.275 -1.145,-0.234 -1.641,0.182 -3.26,-0.201 -4.896,-0.129 -0.855,0.038 -1.69,0.134 -2.517,0.364 -0.705,0.197 -1.14,0.613 -1.244,1.344 -0.12,0.841 -0.262,1.681 -0.333,2.527 -0.105,1.243 -0.267,2.464 -0.657,3.659 -0.593,1.813 -0.792,3.714 -0.947,5.595 C -1.694,0.041 -2.601,0.966 -4.047,1.501 -5.084,1.886 -6.136,2.273 -7.272,2.27 -8.346,2.266 -8.71,1.995 -8.815,0.942 -8.9,0.099 -8.919,-0.757 -8.882,-1.604 c 0.119,-2.746 0.279,-5.489 0.418,-8.234 0.063,-1.241 0.172,-2.485 -0.053,-3.72 -0.181,-0.996 -0.535,-1.346 -1.524,-1.518 -0.385,-0.067 -0.782,-0.095 -1.173,-0.088 -1.256,0.022 -2.483,-0.163 -3.679,-0.52 -0.789,-0.236 -1.532,-0.124 -2.315,0.042 -1.066,0.226 -1.573,0.848 -1.647,1.89 -0.125,1.756 -0.259,3.512 -0.365,5.269 -0.079,1.306 -0.122,2.614 -0.177,3.922 -0.022,0.52 -0.093,1.055 0.224,1.522 0.172,0.252 0.178,0.505 -0.023,0.705 -0.426,0.423 -0.357,0.958 -0.378,1.471 -0.062,1.503 -0.14,3.008 -0.151,4.512 -0.004,0.594 -0.368,1.339 0.483,1.72 0.029,0.014 0.022,0.253 -0.029,0.283 -0.78,0.459 -0.632,1.226 -0.652,1.931 -0.03,1.046 -0.052,2.093 -0.055,3.14 -0.002,1.036 0.01,1.036 1.419,1.427"
             style="fill:#000000;fill-opacity:1;fill-rule:nonzero;stroke:none"
             id="path30" /></g><g
           id="g32"
           transform="translate(394.71,267.6733)"><path
             d="M 0,0 C -0.05,0.056 -0.097,0.151 -0.135,0.147 -1.147,0.049 -2.158,-0.06 -3.169,-0.167 -2.055,-0.672 -0.97,-0.954 0,0 m 1.221,-20.83 c -0.62,0.026 -0.947,0.312 -0.962,0.97 -0.04,1.828 -0.099,3.655 -0.171,5.482 -0.031,0.783 -0.075,1.568 -0.178,2.343 -0.268,2.006 -1.211,3.054 -3.159,3.469 -0.696,0.148 -1.421,0.198 -2.135,0.218 -2.353,0.066 -2.392,0.052 -2.328,-2.351 0.16,-5.939 0.352,-11.878 0.548,-17.817 0.03,-0.912 0.127,-1.823 0.234,-2.731 0.076,-0.653 0.464,-1.079 1.136,-1.154 1.377,-0.152 2.745,-0.088 4.049,0.421 0.901,0.351 1.502,1.026 1.767,1.964 0.106,0.375 0.151,0.767 0.218,1.152 0.346,2.014 0.204,4.042 0.093,6.059 -0.047,0.863 0.194,1.49 0.856,1.993 0.123,-0.012 0.247,-0.026 0.371,-0.037 0.18,-0.016 0.256,0.041 0.192,0.147 -0.015,0.023 -0.119,0.002 -0.178,-0.014 -0.119,-0.032 -0.236,-0.076 -0.353,-0.114 m -13.979,-13.581 c -1.597,0 -2.741,-0.01 -3.884,0.004 -0.748,0.009 -0.936,0.172 -1,0.898 -0.063,0.716 -0.088,1.436 -0.107,2.155 -0.079,3.072 -0.16,6.145 -0.216,9.218 -0.016,0.871 0.119,0.994 0.959,1.178 1.786,0.392 3.576,0.769 5.358,1.18 0.624,0.144 1.228,0.368 1.796,0.787 -1.414,-0.179 -2.829,-0.345 -4.239,-0.544 -0.97,-0.136 -1.932,-0.33 -2.901,-0.479 -0.898,-0.139 -1.071,-0.003 -1.145,0.84 -0.017,0.195 -0.024,0.391 -0.029,0.587 -0.146,5.948 -0.333,11.895 -0.423,17.844 -0.053,3.517 -0.322,3.011 3.022,3.029 2.616,0.014 5.231,0.028 7.839,0.265 0.316,0.029 0.629,0.075 0.972,0.117 -0.159,0.58 -0.704,0.259 -0.946,0.532 -0.006,0.155 0.071,0.249 0.232,0.264 2.244,0.199 4.431,-0.17 6.591,-0.719 C 0.066,2.504 0.995,2.182 1.905,1.827 2.433,1.621 3.551,1.151 3.862,1.12 4.558,1.051 5.042,0.655 5.424,0.1 5.007,-0.601 4.085,-0.437 3.592,-1.051 3.612,-1.48 4.026,-1.416 4.278,-1.489 4.715,-1.616 5.176,-1.658 5.626,-1.74 c 2.496,-0.455 2.658,-0.529 3.8,-2.824 1.085,-2.182 1.612,-4.551 2.079,-6.925 0.201,-1.023 0.295,-2.07 0.393,-3.11 0.05,-0.531 -0.155,-0.74 -0.687,-0.672 -1.188,0.152 -2.348,-0.074 -3.514,-0.193 -0.508,-0.052 -1.046,-0.109 -1.429,-0.582 1.158,-0.569 2.415,-0.551 3.637,-0.725 2.312,-0.328 2.186,0.204 2.327,-2.379 0.103,-1.893 0.204,-3.787 0.246,-5.683 0.021,-0.911 -0.025,-1.836 -0.164,-2.735 -0.31,-1.999 -0.586,-4.014 -1.077,-5.972 -1.169,-4.668 -4.829,-8.677 -10.423,-9.317 -1.558,-0.178 -3.124,-0.304 -4.688,-0.418 -3.326,-0.243 -6.653,-0.464 -9.98,-0.692 -0.456,-0.031 -0.914,-0.077 -1.37,-0.069 -1.172,0.018 -1.632,0.377 -1.969,1.509 -0.075,0.25 -0.15,0.508 -0.162,0.766 -0.086,1.894 -0.176,3.788 -0.22,5.683 -0.016,0.705 0.199,0.916 0.935,0.964 1.172,0.076 2.3,0.347 3.882,0.703"
             style="fill:#000000;fill-opacity:1;fill-rule:nonzero;stroke:none"
             id="path34" /></g><g
           id="g36"
           transform="translate(353.9446,239.5779)"><path
             d="m 0,0 c 0.001,0.028 0.002,0.055 0.003,0.083 0.651,0 1.303,-0.019 1.952,0.013 C 2.128,0.104 2.309,0.267 2.29,0.499 2.263,0.821 2.273,1.163 2.167,1.461 1.404,3.615 1.02,5.87 0.382,8.057 0.257,8.487 0.045,8.9 -0.174,9.295 -0.381,9.669 -0.944,9.649 -1.117,9.256 -1.324,8.784 -1.535,8.294 -1.624,7.79 -2.019,5.545 -2.37,3.293 -2.741,1.044 -2.822,0.554 -2.55,0.276 -2.135,0.209 -1.43,0.096 -0.712,0.065 0,0 m -12.654,-5.616 c -0.875,-0.421 -1.782,-0.362 -2.681,-0.132 -0.62,0.159 -1.163,0.743 -0.889,1.658 1.047,3.505 1.969,7.046 2.732,10.626 0.082,0.383 0.171,0.768 0.297,1.138 0.511,1.504 0.678,1.357 1.768,1.379 0.522,0.01 1.044,0.058 1.564,0.107 0.097,0.01 0.184,0.11 0.456,0.282 -0.817,0.04 -1.46,0.062 -2.102,0.106 -0.852,0.057 -0.979,0.235 -0.826,1.129 0.121,0.708 0.195,1.43 0.386,2.12 0.716,2.592 0.951,5.27 1.451,7.899 0.33,1.73 0.824,3.427 1.178,5.152 0.259,1.258 0.962,1.923 2.228,2.108 2.591,0.379 5.201,0.534 7.809,0.716 0.195,0.014 0.392,-0.005 0.588,-0.004 1.579,0.012 2.749,-0.566 3.394,-2.116 0.503,-1.207 1.081,-2.37 1.326,-3.676 0.229,-1.218 0.554,-2.413 1.072,-3.558 0.348,-0.77 0.596,-1.593 0.817,-2.412 0.7,-2.591 1.642,-5.095 2.642,-7.581 C 10.629,9.143 10.694,8.957 10.748,8.769 10.853,8.398 10.73,8.11 10.356,8.014 9.937,7.908 9.502,7.865 8.819,7.752 9.279,7.657 9.468,7.6 9.66,7.581 c 1.248,-0.119 1.822,-0.793 2.293,-1.998 1.621,-4.141 2.804,-8.426 4.313,-12.601 0.209,-0.578 0.42,-1.097 -0.158,-1.595 -0.238,-0.206 0.027,-0.378 0.177,-0.404 0.657,-0.115 0.994,-0.558 1.28,-1.099 0.491,-0.928 0.93,-1.875 1.194,-2.894 0.186,-0.72 0.153,-1.424 -0.216,-2.092 -0.3,-0.545 -0.689,-0.912 -1.372,-0.939 -1.176,-0.046 -2.347,-0.186 -3.523,-0.23 -1.763,-0.067 -3.532,-0.034 -5.292,-0.138 -1.981,-0.117 -3.461,0.598 -4.309,2.406 -0.606,1.294 -1.643,1.817 -2.978,1.855 -1.963,0.057 -3.921,-0.069 -5.874,-0.275 -0.596,-0.063 -0.969,-0.382 -1.068,-0.969 -0.132,-0.772 -0.226,-1.552 -0.343,-2.327 -0.247,-1.634 -0.7,-2.137 -2.37,-2.36 -2.731,-0.365 -5.48,-0.287 -8.227,-0.217 -0.13,0.004 -0.26,0.029 -0.388,0.052 -1.98,0.359 -2.37,0.946 -2.055,2.957 0.283,1.809 0.562,3.615 1.208,5.342 0.409,1.096 0.693,2.276 2.017,2.678 0.762,0.916 1.754,1.288 2.926,1.291 0.14,0.001 0.278,0.254 0.424,0.384 0.191,-0.07 0.372,-0.177 0.56,-0.192 1.025,-0.083 2.02,-0.01 3.047,0.222 1.586,0.358 3.228,0.466 4.84,0.72 5.035,0.793 10.076,1.512 15.196,1.391 0.334,-0.008 0.744,-0.17 1.02,0.211 -0.283,0.349 -0.709,0.369 -1.065,0.419 -2.461,0.346 -4.927,0.62 -7.399,0.06 -2.103,-0.477 -4.229,-0.894 -6.378,-1.001 -2.107,-0.105 -4.141,-0.521 -6.176,-0.992 -1.208,-0.279 -2.412,-0.574 -3.618,-0.862"
             style="fill:#000000;fill-opacity:1;fill-rule:nonzero;stroke:none"
             id="path38" /></g><g
           id="g40"
           transform="translate(243.191,307.43)"><path
             d="M 0,0 C -0.054,0.023 -0.109,0.064 -0.163,0.063 -0.217,0.061 -0.27,0.018 -0.324,-0.007 -0.269,-0.029 -0.215,-0.07 -0.161,-0.069 -0.107,-0.068 -0.054,-0.025 0,0 M 4.579,-7.115 C 4.565,-7.079 4.551,-7.013 4.539,-7.013 4.421,-7.016 4.304,-7.03 4.186,-7.041 4.2,-7.077 4.214,-7.144 4.226,-7.144 c 0.118,0.003 0.235,0.018 0.353,0.029 M 2.402,-7.471 c -0.354,0.232 -0.706,0.218 -1.056,-0.008 0.353,-0.244 0.705,-0.208 1.056,0.008 m -6.83,-0.313 c -0.029,-0.04 -0.058,-0.079 -0.087,-0.118 h 4.147 c 0,0.039 -0.001,0.078 -0.002,0.118 z M 4.97,-3.7 c -1.377,0.507 -2.762,0.659 -4.227,0.497 -2.339,-0.258 -4.694,-0.358 -7.001,-0.884 -0.442,-0.1 -0.909,-0.117 -1.365,-0.128 -0.542,-0.013 -1.135,0.082 -1.353,0.61 -0.276,0.666 -1.192,0.664 -1.321,1.347 -0.119,0.635 -0.075,1.302 -0.095,1.955 -0.09,3.008 -0.155,6.017 -0.286,9.023 -0.025,0.576 0.335,1.209 0.125,1.626 -0.331,0.654 -0.176,1.27 -0.225,1.898 -0.045,0.586 -0.031,1.177 -0.02,1.766 0.007,0.391 0.032,0.785 0.087,1.173 0.083,0.582 0.313,0.793 0.909,0.805 0.912,0.019 1.825,0.005 3.175,0.005 -1.26,0.351 -2.129,0.566 -2.979,0.841 -0.422,0.137 -0.894,0.301 -0.849,0.913 0.051,0.688 0.377,1.138 1.039,1.221 1.233,0.155 2.472,0.34 3.71,0.348 6.151,0.041 12.303,0.039 18.454,0.025 0.779,-0.002 1.561,-0.136 2.334,-0.256 0.959,-0.15 1.492,-0.745 1.622,-1.705 0.052,-0.388 0.123,-0.774 0.157,-1.164 0.035,-0.4 -0.19,-0.587 -0.576,-0.61 -0.776,-0.045 -1.551,-0.092 -2.359,-0.14 0.106,-0.564 0.478,-0.421 0.738,-0.458 0.453,-0.064 0.914,-0.07 1.366,-0.139 0.775,-0.118 0.918,-0.252 0.951,-0.971 0.054,-1.176 0.06,-2.355 0.111,-3.532 C 17.122,9.698 16.875,9.281 16.235,9.008 15.136,8.54 13.993,8.287 12.816,8.192 12.104,8.135 11.385,8.182 10.661,8.182 10.596,8.622 11.395,8.464 11.168,9.067 7.853,9.279 4.488,8.987 1.131,8.801 1.021,8.35 2.246,8.404 1.424,7.794 1.318,6.095 1.265,4.397 1.554,2.708 1.645,2.179 2.006,1.914 2.495,1.856 3.143,1.778 3.798,1.742 4.452,1.723 7.787,1.625 11.123,1.534 14.459,1.448 c 2.394,-0.062 2.757,-0.287 3.188,-2.99 0.093,-0.578 0.024,-1.18 0.105,-1.761 0.077,-0.56 -0.624,-0.694 -0.592,-1.103 0.034,-0.432 0.317,-0.841 0.472,-1.266 0.042,-0.117 0.049,-0.269 0.014,-0.387 -0.111,-0.374 -0.353,-0.74 -0.349,-1.107 0.004,-0.343 0.295,-0.674 0.389,-1.029 0.068,-0.259 -0.043,-0.552 -0.346,-0.6 C 16.437,-8.938 15.531,-9.105 14.621,-9.15 11.027,-9.325 7.43,-9.456 3.834,-9.605 3.377,-9.624 2.918,-9.628 2.464,-9.678 2.181,-9.708 1.982,-9.92 1.966,-10.2 c -0.103,-1.894 -0.103,-3.789 0.036,-5.682 0.022,-0.303 0.256,-0.436 0.537,-0.461 0.326,-0.028 0.653,-0.049 0.979,-0.05 1.833,-0.008 3.665,-0.016 5.498,-0.01 0.849,0.002 1.67,0.106 2.507,0.344 1.534,0.437 3.119,0.271 4.676,0.036 0.92,-0.14 1.508,-0.672 1.728,-1.632 0.236,-1.034 0.259,-2.071 0.266,-3.12 0.004,-0.585 -0.106,-1.011 -0.781,-1.13 -0.313,-0.056 -0.337,-0.346 -0.233,-0.619 0.16,-0.422 0.237,-0.884 0.648,-1.18 0.149,-0.107 0.28,-0.281 0.35,-0.452 0.733,-1.8 0.351,-2.481 -1.563,-2.738 -4.996,-0.671 -10.008,-1.15 -15.056,-1.145 -1.375,0.002 -2.744,-0.072 -4.11,-0.264 -0.904,-0.127 -1.826,-0.134 -2.74,-0.172 -1.48,-0.061 -2.821,0.385 -4.131,1.052 -1.085,0.553 -1.631,1.407 -1.393,2.54 0.57,2.722 0.32,5.473 0.458,8.209 0.013,0.261 0.017,0.524 0.053,0.782 0.08,0.586 0.448,0.933 0.997,1.08 0.314,0.084 0.643,0.117 0.967,0.159 1.622,0.21 3.24,0.501 4.868,0.597 1.405,0.083 2.681,0.544 3.982,0.97 0.199,0.066 0.344,0.207 0.296,0.428 -0.052,0.24 -0.281,0.226 -0.46,0.223 -2.42,-0.034 -4.841,-0.076 -7.261,-0.116 -0.915,-0.015 -1.831,-0.052 -2.745,-0.037 -0.355,0.006 -0.64,0.262 -0.644,0.621 -0.015,1.372 0.003,2.744 0.032,4.116 0.006,0.276 0.201,0.496 0.481,0.546 0.638,0.112 0.755,0.518 0.858,1.105 0.215,1.236 0.89,1.689 2.213,1.679 1.374,-0.011 2.748,-0.022 4.122,-0.04 2.037,-0.027 4.046,0.268 6.059,0.51 0.51,0.061 1.007,0.231 1.51,0.351"
             style="fill:#000000;fill-opacity:1;fill-rule:nonzero;stroke:none"
             id="path42" /></g><g
           id="g44"
           transform="translate(418.2172,261.6708)"><path
             d="M 0,0 C 1.354,-0.095 2.596,-0.071 3.838,0.217 2.876,0.349 1.911,0.382 0.947,0.386 0.655,0.387 0.32,0.445 0,0 m 25.543,-20.561 c -1.011,0.039 -1.653,0.074 -2.294,0.085 -0.346,0.007 -0.64,-0.261 -0.485,-0.397 0.132,-0.114 0.312,-0.238 0.473,-0.242 0.638,-0.014 1.291,-0.065 2.306,0.554 m -6.427,-5.406 c -0.909,0.066 -1.865,0.157 -2.822,0.195 -0.307,0.012 -0.624,-0.097 -0.925,-0.189 -0.087,-0.027 -0.187,-0.191 -0.181,-0.286 0.005,-0.09 0.14,-0.245 0.22,-0.246 1.279,-0.019 2.555,0.022 3.806,0.336 -0.019,0.038 -0.039,0.075 -0.098,0.19 m 2.754,24.669 c 0.484,-0.582 0.89,-0.584 1.269,-0.655 0.771,-0.144 1.536,-0.337 2.313,-0.417 0.887,-0.092 1.246,-0.601 1.344,-1.406 0.103,-0.844 0.223,-1.686 0.309,-2.531 0.048,-0.471 -0.164,-0.652 -0.708,-0.702 -0.578,-0.054 -1.177,0.109 -1.818,-0.196 0.599,-0.51 1.325,-0.549 1.974,-0.77 0.479,-0.164 0.74,-0.474 0.781,-0.999 0.232,-2.936 0.426,-5.871 0.217,-8.817 -0.037,-0.522 -0.078,-1.044 -0.114,-1.566 -0.327,-4.731 -0.335,-4.728 -2.155,-9.068 -0.624,-1.486 -1.632,-2.67 -2.807,-3.73 -2.195,-1.983 -4.721,-3.255 -7.699,-3.532 -1.303,-0.121 -2.607,-0.223 -3.91,-0.339 -1.526,-0.135 -3.005,0.076 -4.422,0.651 -1.182,0.481 -2.379,0.939 -3.499,1.598 0.289,0.554 0.723,0.36 1.065,0.408 0.452,0.063 0.913,0.06 1.37,0.097 0.391,0.031 0.784,0.061 1.17,0.125 0.364,0.06 0.795,-0.053 1.079,0.393 -0.44,0.331 -0.949,0.285 -1.44,0.291 -1.308,0.015 -2.617,0.044 -3.925,0.016 -0.78,-0.017 -1.405,0.229 -1.903,0.819 -0.628,0.744 -1.254,1.49 -1.846,2.193 0.126,0.53 0.492,0.475 0.797,0.478 1.177,0.013 2.354,0.005 3.761,0.005 -1.471,0.501 -2.764,0.694 -4.081,0.821 -1.521,0.146 -2.108,0.795 -2.255,2.389 -0.026,0.284 0.157,0.478 0.474,0.482 0.065,0.001 0.131,0.006 0.196,0 1.626,-0.163 3.249,-0.355 4.878,-0.484 1.76,-0.139 3.523,-0.234 5.287,-0.318 0.832,-0.039 0.833,-0.007 1.767,0.793 -1.469,0.291 -2.887,0.409 -4.304,0.538 -2.672,0.244 -5.314,0.687 -7.956,1.141 -0.606,0.104 -0.895,0.412 -1.092,0.95 -0.477,1.308 -0.503,2.696 -0.746,4.044 -0.279,1.543 -0.465,3.103 -0.677,4.658 -0.062,0.452 -0.124,0.912 -0.102,1.364 0.063,1.321 0.238,1.426 1.637,1.572 2.997,0.312 6.004,0.385 9.011,0.452 0.392,0.009 0.784,0.024 1.175,0.007 0.363,-0.015 0.626,-0.206 0.663,-0.582 0.11,-1.106 0.254,-2.212 0.285,-3.321 0.067,-2.362 0.546,-4.665 0.892,-6.988 0.095,-0.64 0.447,-1.099 1.021,-1.342 1.16,-0.491 2.36,-0.725 3.636,-0.528 0.62,0.096 0.965,0.424 1.05,0.987 0.204,1.357 0.455,2.717 0.511,4.083 0.085,2.089 0.023,4.184 0.019,6.277 0,0.391 -0.028,0.783 -0.03,1.175 -0.003,0.393 0.236,0.59 0.595,0.641 0.766,0.109 1.534,0.202 2.482,0.326 -0.391,0.466 -0.78,0.354 -1.097,0.405 -0.386,0.062 -0.783,0.061 -1.169,0.128 -0.868,0.149 -1.08,0.263 -1.218,1.23 -0.174,1.229 -0.502,2.436 -0.669,3.665 -0.148,1.095 -0.692,1.957 -1.352,2.78 -0.48,0.599 -1.128,0.861 -1.88,0.92 C 9.393,-0.638 8.853,-0.802 8.46,-1.312 7.981,-1.933 7.4,-2.515 7.086,-3.214 6.724,-4.022 6.19,-4.088 5.51,-3.903 c -2.263,0.616 -4.54,0.356 -6.822,0.17 -1.172,-0.095 -2.351,-0.129 -3.527,-0.158 -0.47,-0.012 -0.712,0.278 -0.648,0.766 0.085,0.646 0.194,1.293 0.359,1.923 0.182,0.694 0.445,1.367 0.662,2.052 1.285,4.05 4.032,6.797 7.751,8.659 1.88,0.942 3.887,1.532 5.942,1.953 1.565,0.32 3.167,0.256 4.677,-0.127 3.051,-0.776 5.999,-1.782 8.033,-4.49 1.304,-1.734 2.66,-3.398 3.164,-5.575 0.158,-0.682 1.007,-1.342 0.655,-1.94 C 25.342,-1.373 24.324,-1.02 23.571,-1.134 23.06,-1.21 22.542,-1.235 21.87,-1.298"
             style="fill:#000000;fill-opacity:1;fill-rule:nonzero;stroke:none"
             id="path46" /></g><g
           id="g48"
           transform="translate(266.8329,225.6987)"><path
             d="m 0,0 c -1.172,0.48 -2.336,0.58 -3.501,0.701 -1.056,0.109 -1.153,0.191 -1.196,1.165 -0.069,1.56 -0.318,3.117 -0.157,4.753 0.62,0.446 1.427,0.152 2.059,0.497 -0.091,0.679 -0.664,0.508 -1.059,0.619 -1.093,0.307 -1.145,0.353 -1.199,1.445 -0.019,0.392 -0.024,0.786 -0.011,1.177 0.025,0.751 0.103,0.84 0.923,0.968 0.898,0.141 1.8,0.255 3.111,0.438 -1.345,0.243 -2.274,0.435 -3.211,0.571 -0.612,0.088 -0.942,0.367 -0.976,1.001 -0.053,0.979 -0.165,1.956 -0.187,2.935 -0.032,1.439 -0.014,2.878 -0.002,4.317 0.004,0.457 0.274,0.714 0.725,0.767 0.194,0.023 0.391,0.023 0.587,0.027 3.14,0.063 6.279,0.13 9.418,0.182 0.389,0.006 0.784,-0.034 1.166,-0.106 1.724,-0.323 3.385,0.063 5.044,0.436 1.003,0.225 1.551,0.94 1.767,1.9 0.247,1.097 0.285,2.226 0.013,3.31 -0.248,0.993 -1.002,1.669 -1.887,2.138 C 9.812,30.096 8.056,30.215 6.273,30.098 5.849,30.07 5.546,29.819 5.405,29.412 5.321,29.167 5.267,28.909 5.211,28.655 4.951,27.487 4.953,27.431 3.896,27.423 1.274,27.402 -1.326,27.101 -3.936,26.921 c -0.325,-0.023 -0.652,-0.036 -0.977,-0.025 -0.293,0.01 -0.481,0.195 -0.523,0.474 -0.049,0.322 -0.064,0.651 -0.07,0.977 -0.034,1.635 -0.041,3.271 -0.094,4.905 -0.055,1.699 -0.08,3.403 -0.252,5.091 -0.167,1.646 0.927,2.335 2.194,2.339 0.326,10e-4 0.673,0.033 0.975,-0.061 0.844,-0.263 1.675,-0.17 2.522,-0.045 0.644,0.095 1.275,0.097 1.925,-0.15 0.469,-0.178 1.025,-0.161 1.543,-0.167 1.571,-0.018 3.137,0.071 4.7,0.25 2.745,0.313 5.471,0.377 8.153,-0.526 2.225,-0.749 4.099,-2.024 5.704,-3.682 0.574,-0.593 0.924,-1.41 1.337,-2.147 0.238,-0.423 0.065,-0.796 -0.384,-0.921 -0.626,-0.173 -0.863,-0.519 -0.723,-1.148 0.154,-0.695 -0.499,-1.179 -0.521,-1.921 0.795,-0.066 1.571,-0.125 2.347,-0.197 0.344,-0.033 0.633,-0.175 0.725,-0.545 0.528,-2.131 0.667,-4.238 -0.128,-6.362 -0.337,-0.901 -0.84,-1.393 -1.785,-1.549 -2.321,-0.384 -4.634,-0.818 -6.951,-1.23 -0.192,-0.034 -0.394,-0.036 -0.578,-0.096 -0.097,-0.032 -0.216,-0.147 -0.232,-0.24 -0.018,-0.109 0.031,-0.271 0.11,-0.348 0.356,-0.348 0.789,-0.373 1.272,-0.332 1.433,0.121 2.868,0.213 4.304,0.283 0.445,0.021 0.895,-0.067 1.298,-0.101 0.211,-0.44 -0.012,-0.702 -0.209,-0.952 C 21.343,17.982 20.944,17.462 20.5,16.985 19.441,15.848 19.617,15.261 20.556,14.37 22.806,12.235 23.967,9.477 24.65,6.5 24.811,5.8 24.927,5.089 25.045,4.38 25.127,3.892 25.063,3.467 24.485,3.305 24.199,3.224 24.034,2.971 24.071,2.711 24.168,2.04 23.742,1.479 23.685,0.884 c 0.098,-0.09 0.138,-0.153 0.195,-0.176 0.479,-0.195 1.182,-0.092 1.423,-0.55 0.324,-0.617 0.419,-1.36 0.572,-2.057 0.035,-0.162 -0.041,-0.462 -0.157,-0.522 -0.437,-0.227 -0.439,-0.473 -0.33,-0.937 0.325,-1.381 -0.365,-2.48 -1.697,-2.436 -1.77,0.06 -3.511,-0.351 -5.271,-0.18 -0.778,0.076 -1.556,0.206 -2.32,0.375 -0.621,0.137 -1.036,0.552 -1.139,1.204 -0.132,0.839 -0.274,1.679 -0.351,2.524 -0.119,1.305 -0.289,2.59 -0.681,3.852 -0.348,1.12 -0.541,2.278 -0.669,3.454 -0.146,1.356 -0.456,2.694 -0.708,4.115 0.607,0.409 1.349,0.341 2.042,0.385 2.158,0.137 4.295,0.402 6.406,0.875 0.127,0.028 0.268,0.034 0.378,0.096 0.095,0.054 0.207,0.168 0.215,0.263 0.009,0.107 -0.065,0.293 -0.148,0.323 -1.163,0.433 -2.32,0.816 -3.611,0.723 C 15.939,12.078 14.06,11.852 12.196,11.506 10.771,11.242 9.362,11.043 7.919,11.393 7.274,11.549 6.572,11.558 6.046,11.098 5.44,10.567 4.736,10.56 4.023,10.523 2.68,10.455 1.335,10.407 -0.239,10.341 1.751,9.547 2.45,9.475 3.929,9.818 4.244,9.892 4.567,9.949 4.889,9.968 5.262,9.99 5.562,9.784 5.547,9.413 5.513,8.537 6.004,7.605 5.297,6.789 5.245,6.73 5.248,6.54 5.301,6.486 5.999,5.787 5.755,4.884 5.815,4.062 5.947,2.235 6.029,0.405 6.119,-1.424 6.167,-2.404 6.173,-3.38 6.046,-4.361 5.926,-5.291 5.391,-5.748 4.539,-5.91 4.156,-5.983 3.759,-6.015 3.369,-6.012 2.117,-6.001 0.879,-6.117 -0.31,-6.506 c -0.931,-0.305 -1.808,-0.109 -2.697,0.127 -0.706,0.188 -1.11,0.65 -1.231,1.366 -0.022,0.129 -0.047,0.258 -0.058,0.388 -0.419,5.352 -1.21,4.217 3.626,4.567 C -0.474,-0.044 -0.279,-0.024 0,0"
             style="fill:#000000;fill-opacity:1;fill-rule:nonzero;stroke:none"
             id="path50" /></g><g
           id="g52"
           transform="translate(231.1211,231.3967)"><path
             d="m 0,0 c -0.904,0.832 -1.986,0.816 -2.965,1.154 -0.433,0.148 -0.683,0.385 -0.698,0.82 -0.06,1.633 -0.112,3.267 -0.14,4.901 -0.006,0.401 0.302,0.555 0.667,0.512 C -1.772,7.226 -0.412,7.041 0.951,6.88 3.745,6.55 6.542,6.248 9.362,6.289 9.786,6.295 10.209,6.356 10.626,6.532 8.063,6.982 5.499,7.421 2.939,7.884 0.818,8.268 -1.298,8.679 -3.416,9.079 c -0.289,0.055 -0.447,0.236 -0.479,0.528 -0.014,0.129 -0.034,0.26 -0.035,0.39 -0.039,3.034 -0.517,2.862 2.566,2.659 1.164,-0.076 2.338,-0.012 3.516,-0.012 -0.029,0.479 -0.437,0.393 -0.698,0.473 -1.562,0.479 -3.126,0.95 -4.697,1.394 -0.677,0.191 -0.931,0.609 -0.951,1.286 -0.05,1.635 -0.152,3.268 -0.207,4.903 -0.021,0.619 0.169,0.81 0.785,0.882 0.519,0.06 1.044,0.077 1.563,0.138 0.174,0.02 0.454,0.045 0.368,0.319 -0.046,0.146 -0.244,0.291 -0.404,0.345 -0.798,0.269 -1.81,0.211 -2.344,0.87 -0.638,0.787 -0.327,1.884 -0.387,2.845 -0.101,1.632 -0.138,3.27 0.046,4.901 0.07,0.619 0.239,0.739 0.897,0.779 0.83,0.051 1.68,-0.121 2.936,0.281 -1.257,0.154 -2.087,0.239 -2.909,0.372 -0.147,0.024 -0.261,0.25 -0.391,0.383 0.091,0.087 0.168,0.219 0.276,0.253 0.371,0.118 0.747,0.248 1.131,0.29 1.235,0.138 2.472,0.301 3.712,0.341 5.885,0.19 11.766,0.542 17.658,0.478 0.782,-0.008 1.574,-0.033 2.341,-0.166 0.83,-0.144 1.425,-0.646 1.588,-1.53 0.106,-0.577 0.227,-1.156 0.272,-1.74 0.075,-0.951 -0.084,-1.107 -1.067,-1.212 -0.755,-0.082 -1.542,-0.02 -2.496,-0.463 0.733,-0.438 1.303,-0.292 1.829,-0.348 0.259,-0.027 0.523,-0.006 0.784,-0.022 0.979,-0.06 1.044,-0.12 1.159,-1.179 0.056,-0.52 0.103,-1.043 0.112,-1.566 0.008,-0.509 0.261,-1.117 -0.156,-1.503 -0.577,-0.534 -1.291,-0.893 -2.135,-0.805 -0.26,0.027 -0.523,0.053 -0.777,0.113 -1.353,0.323 -2.723,0.34 -4.098,0.214 C 11.259,23.545 6.61,23.644 1.968,23.538 1.445,23.527 0.923,23.509 0.4,23.492 0.231,23.487 0.134,23.4 0.175,23.258 c 0.034,-0.113 0.099,-0.253 0.192,-0.304 0.168,-0.09 0.366,-0.132 0.556,-0.178 1.716,-0.41 3.425,-0.874 5.218,-0.76 0.195,0.012 0.392,-0.007 0.588,-0.017 0.486,-0.024 0.681,-0.321 0.698,-0.768 0.017,-0.457 0.01,-0.916 0.034,-1.373 0.205,-3.902 0.119,-3.422 3.51,-3.498 3.073,-0.07 6.149,0.039 9.224,0.05 0.652,0.002 1.31,-0.038 1.953,-0.136 0.609,-0.093 1.101,-0.418 1.289,-1.057 0.079,-0.268 0.057,-0.542 -0.293,-0.573 -0.454,-0.041 -0.913,-0.037 -1.37,-0.039 -4.972,-0.027 -9.945,-0.05 -14.917,-0.079 -0.192,-10e-4 -0.385,-0.043 -0.753,-0.088 1.099,-0.478 2.101,-0.595 3.115,-0.7 3.064,-0.318 6.138,-0.356 9.214,-0.363 1.57,-0.004 3.141,-0.015 4.711,-0.028 0.427,-0.003 0.768,-0.137 0.836,-0.63 0.268,-1.952 0.25,-3.916 0.226,-5.878 C 24.199,6.264 23.742,6.076 23.268,6.023 21.773,5.856 20.277,5.686 18.778,5.576 16.038,5.377 13.294,5.223 10.553,5.043 10.096,5.013 9.641,4.952 9.187,4.894 8.734,4.837 8.496,4.575 8.484,4.112 8.479,3.916 8.471,3.72 8.455,3.524 8.416,3.061 8.157,2.837 7.695,2.812 6.259,2.734 4.822,2.652 3.386,2.559 3.073,2.539 2.72,2.592 2.433,2.137 3.608,1.871 4.767,1.884 5.897,1.716 6.218,1.668 6.55,1.686 6.876,1.668 8.507,1.579 8.508,1.578 8.581,0.032 c 0.018,-0.392 0.017,-0.785 0.05,-1.176 0.04,-0.465 0.335,-0.715 0.78,-0.701 2.55,0.081 5.1,0.17 7.648,0.29 0.378,0.018 0.745,0.222 1.121,0.324 1.608,0.435 3.229,0.491 4.856,0.119 1.201,-0.274 1.604,-0.754 1.751,-2.027 0.067,-0.582 -0.13,-0.905 -0.669,-1 -0.577,-0.101 -1.162,-0.156 -1.779,-0.236 0.304,-0.406 0.742,-0.258 1.078,-0.406 1.284,-0.566 1.667,-1.632 1.003,-2.875 -0.145,-0.273 -0.355,-0.512 -0.573,-0.819 0.28,-0.063 0.465,-0.132 0.653,-0.142 0.366,-0.019 0.604,-0.144 0.683,-0.538 0.511,-2.519 0.897,-2.405 -1.853,-2.854 -4,-0.653 -8.026,-1.163 -12.085,-1.338 -2.483,-0.106 -4.963,-0.246 -7.427,-0.627 -1.026,-0.159 -2.087,-0.123 -3.132,-0.118 -1.138,0.005 -2.165,0.435 -3.17,0.934 -1.081,0.537 -1.474,1.422 -1.381,2.578 0.005,0.065 -0.008,0.138 0.017,0.194 0.369,0.845 -0.07,2.011 0.585,2.596 0.672,0.599 1.759,0.137 2.661,0.189 0.806,0.046 1.64,-0.199 2.475,0.131 -0.293,0.532 -0.73,0.377 -1.078,0.441 -0.964,0.176 -1.939,0.298 -2.902,0.482 -1.386,0.265 -1.4,0.294 -1.43,1.805 -0.026,1.308 -0.054,2.617 -0.043,3.925 0.006,0.625 0.184,0.788 0.842,0.81 C -1.826,0.022 -0.913,0 0,0"
             style="fill:#000000;fill-opacity:1;fill-rule:nonzero;stroke:none"
             id="path54" /></g><g
           id="g56"
           transform="translate(309.8744,282.6181)"><path
             d="m 0,0 c -0.849,-0.22 -1.725,-0.448 -2.724,-0.707 0.737,-0.447 1.479,-0.402 2.162,-0.566 0.348,-0.083 0.628,-0.225 0.611,-0.625 -0.017,-0.419 -0.203,-0.866 -0.631,-0.87 -1.836,-0.019 -3.496,-1.132 -5.377,-0.83 -0.514,0.082 -1.05,0.055 -1.551,0.18 -0.848,0.212 -1.668,0.194 -2.519,0.017 -0.856,-0.178 -1.203,0.099 -1.314,0.968 -0.074,0.583 -0.098,1.174 -0.116,1.762 -0.075,2.551 -0.148,5.102 -0.204,7.654 -0.022,0.98 0.029,1.022 1.077,1.257 0.383,0.086 0.771,0.149 1.157,0.218 0.313,0.055 0.649,0.027 0.911,0.274 -0.206,0.567 -0.728,0.491 -1.154,0.513 -2.311,0.123 -2.127,-0.096 -2.2,2.393 -0.069,2.355 -0.082,4.709 0.107,7.064 0.082,1.021 -0.006,2.048 -0.084,3.081 -0.184,2.409 -0.123,4.837 -0.162,7.257 -0.006,0.366 0.176,0.595 0.495,0.763 0.281,0.147 0.623,0.22 0.806,0.592 -0.389,0.064 -0.763,0.127 -1.165,0.194 -0.059,0.171 -0.137,0.35 -0.18,0.536 -0.368,1.605 -0.397,1.652 -2.048,1.773 -2.155,0.156 -4.311,0.211 -6.473,0.083 -1.096,-0.065 -1.198,0.044 -1.52,1.084 -0.352,1.135 -0.479,2.303 -0.49,3.487 -0.009,0.916 -0.037,1.833 -0.009,2.748 0.063,2.029 0.987,2.973 2.959,3.182 1.891,0.2 3.78,0.231 5.68,0.219 4.908,-0.032 9.817,0.02 14.725,-0.002 2.224,-0.011 4.448,-0.174 6.671,-0.169 2.42,0.005 3.364,-1.253 3.602,-3.281 0.023,-0.192 0.003,-0.389 0.003,-0.617 -1.364,-0.081 -2.72,-0.06 -4.039,-0.269 -1.323,-0.209 -2.745,0.03 -4.315,-0.86 2.352,-0.093 4.348,-0.197 6.345,-0.244 2.253,-0.054 2.304,-0.047 1.96,-2.617 -0.034,-0.254 -0.152,-0.5 -0.25,-0.742 C 10.533,34.376 10.172,34.048 9.58,33.994 8.733,33.916 7.888,33.813 7.042,33.725 6.4,33.658 5.745,33.705 5.261,33.097 5.01,32.781 4.534,32.859 4.148,32.847 3.167,32.817 2.185,32.83 1.204,32.79 0.138,32.746 -0.142,32.623 -0.312,31.641 c -0.164,-0.948 -0.695,-1.299 -1.509,-1.536 -1.694,-0.494 -3.373,-1.041 -5.06,-1.558 -0.376,-0.115 -0.769,-0.195 -1.022,-0.525 -0.062,-0.081 -0.042,-0.235 -0.034,-0.354 0.003,-0.041 0.083,-0.107 0.129,-0.109 0.322,-0.012 0.644,-0.025 0.965,-0.011 1.699,0.075 3.397,0.184 5.096,0.229 1.107,0.028 1.184,-0.071 1.219,-1.247 0.086,-2.813 0.21,-5.626 0.215,-8.439 C -0.303,12.853 -0.081,7.623 0.136,2.392 0.168,1.617 0.31,0.826 0,0"
             style="fill:#000000;fill-opacity:1;fill-rule:nonzero;stroke:none"
             id="path58" /></g><g
           id="g60"
           transform="translate(416.5701,316.4565)"><path
             d="m 0,0 c -0.012,0.006 -0.023,0.012 -0.035,0.018 h -2.233 c 0,-0.006 0,-0.012 0,-0.018 z m -2.263,-15.451 c 0.033,0.001 0.067,0.001 0.1,0.002 0,-0.522 -0.015,-1.044 0.003,-1.566 0.066,-1.956 0.133,-3.907 0.478,-5.848 0.157,-0.877 0.467,-1.465 1.332,-1.711 0.25,-0.071 0.495,-0.17 0.749,-0.221 2.258,-0.449 2.376,0.126 2.649,1.773 0.736,4.437 0.493,8.849 -0.348,13.248 -0.143,0.743 -0.54,1.33 -1.003,1.875 -0.657,0.773 -2.023,1.054 -2.877,-0.055 -0.786,-1.022 -1.348,-2.061 -1.269,-3.387 0.081,-1.369 0.125,-2.74 0.186,-4.11 m -6.327,9.136 c -0.718,0.376 -1.555,-0.114 -2.26,0.414 0.332,1.966 1.551,3.487 2.977,4.664 3.012,2.484 6.507,3.93 10.508,3.409 2.778,-0.362 5.298,-1.386 7.067,-3.747 0.785,-1.047 1.603,-2.065 2.051,-3.323 0.199,-0.558 0.399,-1.106 0.356,-1.751 -1.145,-0.58 -2.511,-0.463 -3.682,-0.911 0.02,-0.564 0.368,-0.432 0.569,-0.456 0.842,-0.105 1.696,-0.136 2.534,-0.266 0.496,-0.077 1.153,0.046 1.434,-0.46 0.419,-0.757 0.425,-1.629 0.306,-2.477 -0.018,-0.127 -0.265,-0.302 -0.417,-0.315 -0.585,-0.05 -1.175,-0.046 -1.763,-0.057 -1.112,-0.021 -2.223,-0.035 -3.334,-0.058 -0.239,-0.005 -0.477,-0.034 -0.954,-0.069 1.072,-0.465 1.971,-0.542 2.867,-0.668 1.097,-0.154 2.186,-0.375 3.27,-0.607 0.412,-0.088 0.67,-0.387 0.672,-0.847 0,-0.065 0.003,-0.131 0.015,-0.195 0.291,-1.6 -0.354,-3.167 -0.051,-4.807 0.295,-1.6 -0.085,-3.256 -0.286,-4.878 -0.122,-0.979 -0.169,-1.002 -1.233,-1.166 -0.433,-0.067 -0.899,0.022 -1.411,-0.342 0.691,-0.066 1.272,-0.103 1.847,-0.184 0.306,-0.044 0.415,-0.293 0.361,-0.579 -0.174,-0.915 -0.67,-1.695 -1.08,-2.509 -0.168,-0.333 -0.515,-0.36 -0.845,-0.38 -2.088,-0.127 -4.177,-0.25 -6.265,-0.383 -0.651,-0.041 -1.302,-0.099 -1.95,-0.175 -0.088,-0.011 -0.202,-0.171 -0.217,-0.274 -0.01,-0.067 0.13,-0.218 0.215,-0.228 1.493,-0.176 2.989,-0.321 4.481,-0.504 0.905,-0.111 1.803,-0.274 2.658,-0.407 0.2,-0.472 -0.081,-0.679 -0.311,-0.892 -2.231,-2.07 -4.928,-2.88 -7.908,-2.859 -1.176,0.008 -2.351,0.106 -3.525,0.19 -1.416,0.101 -2.703,0.745 -3.788,1.502 -2.448,1.707 -4.45,3.861 -5.005,6.973 -0.388,2.181 -0.773,4.365 -1.068,6.56 -0.183,1.354 -0.281,2.72 -0.155,4.106 0.113,1.232 0,2.483 0.033,3.725 0.03,1.109 0.089,2.22 0.202,3.324 0.072,0.709 0.467,1.201 1.242,1.299 0.643,0.081 1.295,0.155 1.843,0.608"
             style="fill:#000000;fill-opacity:1;fill-rule:nonzero;stroke:none"
             id="path62" /></g><g
           id="g64"
           transform="translate(381.6487,303.8697)"><path
             d="M 0,0 C -0.054,0.099 -0.086,0.243 -0.168,0.282 -0.24,0.317 -0.421,0.262 -0.461,0.193 -0.564,0.015 -0.49,-0.147 -0.275,-0.161 -0.187,-0.166 -0.092,-0.058 0,0 m 16.14,-10.053 c 0.096,0.563 -0.311,0.869 -0.52,1.256 -0.131,0.243 -0.361,0.367 -0.64,0.384 -0.195,0.013 -0.416,0.082 -0.583,0.017 -1.401,-0.542 -2.831,-0.1 -4.244,-0.164 C 8.717,-8.624 7.285,-8.785 5.852,-8.904 5.656,-8.92 5.461,-8.95 5.266,-8.962 4.316,-9.019 4.226,-8.973 3.816,-8.02 3.558,-7.42 3.347,-6.8 3.109,-6.191 3.038,-6.01 2.97,-5.819 2.856,-5.666 2.796,-5.585 2.642,-5.557 2.525,-5.539 2.361,-5.514 2.282,-5.609 2.272,-5.775 2.238,-6.296 2.183,-6.815 2.164,-7.337 2.086,-9.494 2.003,-11.651 1.955,-13.808 c -0.016,-0.716 0.036,-1.437 0.111,-2.15 0.172,-1.641 0.087,-3.268 -0.222,-4.883 -0.141,-0.736 -0.286,-0.888 -1.009,-0.988 -1.691,-0.234 -3.393,-0.235 -5.092,-0.139 -0.835,0.047 -1.246,0.419 -1.293,1.197 -0.11,1.822 -0.653,3.606 -0.459,5.452 0.034,0.324 -0.013,0.66 0.04,0.979 0.372,2.234 0.255,1.916 2.116,1.968 0.455,0.013 0.91,0.073 1.364,0.118 0.028,0.002 0.049,0.066 0.148,0.206 -1.058,0.205 -2.067,0.401 -3.12,0.605 -0.049,0.276 -0.134,0.527 -0.132,0.777 0.02,2.748 0.046,5.495 0.089,8.243 0.016,1.004 0.08,1.065 1.049,1.337 0.309,0.087 0.63,0.13 0.849,0.174 0.191,0.17 0.161,0.29 -0.021,0.316 -2.116,0.304 -1.866,0.35 -1.856,2.189 0.018,3.467 -0.026,6.935 0.217,10.397 0.137,1.957 0.387,2.191 2.333,2.391 1.901,0.195 3.79,-0.016 5.679,-0.154 C 3.32,14.185 3.89,13.965 4.442,13.77 4.949,13.59 5.308,13.236 5.528,12.711 6.766,9.756 7.683,6.703 8.421,3.503 5.188,2.859 1.891,3.11 -1.293,2.295 -0.739,2.268 -0.186,2.22 0.367,2.218 2.722,2.206 5.078,2.17 7.432,2.223 8.402,2.245 9.096,2.077 9.255,0.983 9.281,0.808 9.435,0.648 9.544,0.491 9.574,0.447 9.659,0.405 9.705,0.417 c 0.107,0.026 0.214,0.074 0.303,0.137 0.044,0.031 0.057,0.115 0.072,0.178 0.103,0.436 -0.089,0.966 0.253,1.308 0.464,0.463 1.114,0.243 1.687,0.291 0.65,0.055 1.302,0.078 1.951,0.139 0.11,0.01 0.208,0.14 0.357,0.248 -0.406,0.654 -0.979,0.998 -1.749,1.019 -0.13,0.004 -0.262,-0.022 -0.392,-0.013 -0.624,0.045 -1.365,-0.472 -1.846,0.13 -0.416,0.519 -0.165,1.261 -0.18,1.904 -0.021,0.915 -0.003,1.831 0.015,2.747 0.009,0.474 0.291,0.707 0.752,0.692 0.588,-0.02 1.175,-0.06 1.762,-0.104 C 13.798,9.008 14.905,8.9 16.014,8.827 18.121,8.689 18.122,8.696 18.059,6.503 18.05,6.176 18.046,5.849 18.026,5.522 17.955,4.348 17.921,4.311 16.82,4.192 16.495,4.157 16.165,4.152 15.842,4.104 15.468,4.049 15.038,4.11 14.789,3.722 14.655,3.513 15.255,2.726 15.705,2.607 c 0.372,-0.099 0.774,-0.112 1.162,-0.109 0.836,0.007 1.035,0.034 1.105,-1.151 0.059,-1.012 -0.284,-1.987 -0.039,-3.033 0.234,-1.002 0.146,-2.081 0.198,-3.126 0.052,-1.045 0.11,-2.09 0.151,-3.136 0.041,-1.045 0.059,-2.092 0.098,-3.138 0.038,-1.046 0.103,-2.091 0.135,-3.137 0.037,-1.241 0.147,-2.483 -0.046,-3.722 -0.142,-0.911 -0.196,-0.981 -1.092,-1.008 -0.719,-0.021 -1.439,-0.004 -2.159,-0.013 -1.962,-0.024 -3.923,-0.03 -5.873,-0.32 -0.999,-0.149 -1.04,-0.112 -1.479,0.852 -0.352,0.772 -0.689,1.557 -0.96,2.36 -0.67,1.98 -1.202,4.008 -2.085,5.914 -0.169,0.365 0.026,0.661 0.427,0.644 1.96,-0.08 3.92,-0.158 5.877,-0.283 1.5,-0.095 2.996,-0.264 4.496,-0.383 0.172,-0.013 0.353,0.085 0.519,0.129"
             style="fill:#000000;fill-opacity:1;fill-rule:nonzero;stroke:none"
             id="path66" /></g><g
           id="g68"
           transform="translate(274.2926,283.0509)"><path
             d="m 0,0 c -0.09,0.042 -0.179,0.114 -0.269,0.115 -0.06,0 -0.121,-0.101 -0.181,-0.157 0.05,-0.022 0.105,-0.07 0.149,-0.061 C -0.198,-0.084 -0.1,-0.037 0,0 M -2.137,1.548 C -2.639,1.896 -3.04,2.083 -3.497,2.122 -3.67,2.136 -3.885,2.134 -3.9,1.904 -3.906,1.815 -3.766,1.681 -3.662,1.626 -3.241,1.404 -2.79,1.484 -2.137,1.548 M 2.609,18.134 C 2.697,17.755 2.933,17.63 3.188,17.566 3.631,17.456 4.085,17.389 4.531,17.289 5.332,17.109 5.407,17.026 5.473,16.293 5.49,16.098 5.493,15.902 5.499,15.706 5.625,11.014 5.755,6.322 5.875,1.63 5.92,-0.131 5.979,-0.132 4.219,-0.133 3.31,-0.134 2.401,-0.133 1.484,-0.259 2.676,-0.696 3.93,-0.709 5.147,-0.927 5.531,-0.996 5.928,-0.99 6.319,-1.027 6.651,-1.058 6.995,-1.125 7.079,-1.504 7.137,-1.768 6.968,-1.992 6.781,-2.19 6.312,-2.686 5.78,-2.966 5.062,-2.957 c -2.484,0.031 -4.967,0.018 -7.451,0.022 -0.461,10e-4 -0.884,0.132 -1.327,0.271 -1.442,0.454 -2.115,1.42 -2.173,2.897 -0.107,2.741 -0.235,5.482 -0.35,8.223 -0.02,0.457 -0.035,0.915 -0.022,1.372 0.015,0.517 -0.165,1.083 0.128,1.537 0.329,0.511 0.975,0.169 1.434,0.381 0.101,0.047 0.206,0.146 0.249,0.247 0.123,0.292 -0.154,0.322 -0.309,0.361 -0.251,0.063 -0.521,0.043 -0.777,0.09 -0.633,0.116 -0.759,0.264 -0.788,0.896 -0.03,0.678 0.125,0.992 0.85,0.994 0.788,0.003 1.538,0.182 2.469,0.626 -0.915,0.205 -1.599,0.351 -2.279,0.512 -1.07,0.253 -1.088,0.275 -1.079,1.463 0.001,0.189 0.07,0.378 0.125,0.65 0.532,0.281 1.124,-0.006 1.677,0.085 0.111,0.018 0.263,0.096 0.297,0.184 0.034,0.087 -0.045,0.228 -0.097,0.336 -0.024,0.051 -0.103,0.074 -0.15,0.119 -0.513,0.488 -1.518,0.348 -1.72,1.139 -0.156,0.608 0,1.294 0.005,1.946 0.037,4.641 0.07,9.282 -0.209,13.919 -0.051,0.838 -0.345,1.795 0.112,2.5 0.512,0.79 1.595,0.249 2.369,0.557 0.058,0.023 0.104,0.078 0.16,0.121 -0.345,0.249 -0.752,0.126 -1.124,0.196 -0.55,0.105 -1.344,-0.181 -1.568,0.475 -0.274,0.806 -0.738,1.579 -0.224,2.601 0.572,1.138 1.388,1.71 2.532,1.899 0.768,0.128 1.564,0.136 2.345,0.12 1.502,-0.031 3.007,-0.073 4.504,-0.194 1.251,-0.1 1.413,-0.284 1.598,-1.545 C 4.373,41.335 4.4,40.612 4.417,39.894 4.468,37.673 4.552,35.464 4.876,33.253 5.12,31.584 5.018,29.863 5.06,28.164 5.086,27.119 5.097,26.073 5.111,25.027 5.116,24.695 5.096,24.372 4.722,24.216 4.465,24.11 4.221,23.963 4.655,23.782 5.11,23.592 5.147,23.224 5.165,22.825 5.213,21.78 5.275,20.736 5.303,19.691 5.326,18.844 4.94,18.351 4.133,18.173 3.882,18.118 3.614,18.141 3.353,18.135 3.111,18.129 2.869,18.134 2.609,18.134"
             style="fill:#000000;fill-opacity:1;fill-rule:nonzero;stroke:none"
             id="path70" /></g><g
           id="g72"
           transform="translate(333.2295,350.2148)"><path
             d="M 0,0 C 1.251,-0.139 2.502,-0.378 4.116,0.006 2.501,0.473 1.251,0.241 0,0 m 9.701,4.56 c 0.63,-0.205 1.257,0.006 1.88,0.122 1.624,0.302 3.258,0.249 4.89,0.143 C 17.026,4.79 17.463,4.469 17.591,3.886 17.701,3.383 17.454,3 17.071,2.699 16.846,2.522 16.403,2.513 16.622,1.917 c 2.449,-0.414 4.925,-0.984 7.376,-1.67 0.731,-0.205 1.181,-0.488 1.214,-1.276 0.02,-0.484 0.347,-0.667 0.773,-0.721 0.318,-0.04 0.703,-0.199 0.935,0.062 0.275,0.309 -0.06,0.589 -0.232,0.838 -0.296,0.43 -0.649,0.823 -0.931,1.263 -1.389,2.165 -2.599,4.402 -2.624,7.072 -0.002,0.224 -0.115,0.545 0.427,0.642 0.819,-0.991 1.692,-2.034 2.549,-3.089 1.032,-1.269 2.048,-2.551 3.075,-3.823 0.304,-0.377 0.627,-0.631 1.177,-0.39 0.405,0.177 0.535,-0.175 0.661,-0.497 0.348,-0.888 0.363,-0.903 1.187,-0.673 3.156,0.883 6.359,1.501 9.629,1.757 0.185,0.014 0.236,0.103 0.148,0.284 -0.293,0.379 -0.771,0.427 -1.179,0.609 -1.73,0.773 -3.518,1.443 -5.177,2.348 -3.443,1.879 -6.833,3.858 -10.213,5.85 -1.521,0.896 -2.968,1.918 -4.293,3.097 -0.402,0.358 -0.711,0.753 -0.706,1.337 0.003,0.365 0.298,0.625 0.633,0.482 0.299,-0.128 0.578,-0.3 0.874,-0.434 0.243,-0.11 0.448,-0.497 0.846,-0.091 -0.677,0.803 -1.269,1.656 -1.748,2.583 -0.046,0.089 -0.219,0.158 -0.329,0.153 C 20.606,17.625 20.483,17.509 20.448,17.416 20.379,17.235 20.376,17.03 20.318,16.843 19.431,14.008 18.02,11.603 15.085,10.427 14.799,10.312 14.563,10.042 14.338,9.81 12.925,8.356 11.518,6.895 10.118,5.427 9.904,5.203 9.601,5.006 9.701,4.56 m 10.606,-7.209 c 0.471,-0.208 0.941,-0.433 1.579,-0.041 -0.658,0.19 -1.147,0.265 -1.626,-0.007 -0.022,0.288 -0.17,0.456 -0.455,0.523 -1.432,0.337 -2.862,0.68 -4.309,1.004 -0.055,-0.017 -0.112,-0.054 -0.164,-0.047 -0.203,0.027 -0.241,-0.026 -0.085,-0.071 0.077,-0.022 0.193,0.097 0.292,0.152 0.005,-0.276 0.077,-0.502 0.387,-0.581 1.445,-0.369 2.878,-0.794 4.381,-0.932 M 11.303,12.346 C 5.912,11.405 0.516,10.559 -4.986,10.384 c 0.058,0.494 0.354,0.556 0.581,0.616 0.694,0.184 1.393,0.374 2.103,0.464 4.669,0.592 9.338,1.181 14.014,1.712 0.941,0.107 1.628,0.407 1.993,1.3 0.1,0.245 0.222,0.439 0.501,0.544 1.667,0.627 2.164,2.135 2.666,3.621 0.188,0.556 0.31,1.136 0.435,1.711 0.097,0.441 0.346,0.694 0.791,0.727 1.238,0.094 2.476,0.198 3.716,0.253 0.798,0.035 1.213,-0.32 1.388,-1.082 0.044,-0.19 0.069,-0.388 0.072,-0.583 0.014,-1.113 0.561,-1.98 1.224,-2.819 1.429,-1.807 3.101,-3.366 4.857,-4.84 3.952,-3.318 8.459,-5.657 13.245,-7.511 2.532,-0.981 5.169,-1.4 7.863,-1.474 1.83,-0.05 3.662,0.003 5.493,-0.007 0.92,-0.005 1.839,-0.058 2.659,-0.544 C 58.839,2.34 59.038,2.124 58.954,1.837 58.905,1.67 58.77,1.472 58.619,1.4 57.121,0.685 55.519,0.387 53.874,0.342 51.912,0.289 49.951,0.319 47.997,0.555 47.351,0.633 46.755,0.641 46.184,0.11 45.6,-0.433 44.749,-0.538 43.965,-0.511 c -2.418,0.086 -4.824,-0.39 -7.247,-0.112 -1.003,0.115 -2.025,-0.116 -2.793,-0.697 -0.86,-0.652 -1.789,-1.007 -2.781,-1.299 -0.125,-0.037 -0.241,-0.1 -0.361,-0.153 -0.576,-0.257 -0.706,-0.503 -0.409,-1.057 0.285,-0.532 0.634,-1.017 0.213,-1.622 -0.446,-0.641 -1.105,-0.663 -1.761,-0.519 -1.616,0.357 -3.235,0.411 -4.87,0.19 -0.47,-0.063 -0.926,0.01 -1.283,0.345 -0.404,0.378 -0.891,0.499 -1.414,0.605 -4.039,0.816 -8.02,1.86 -11.931,3.158 -0.705,0.234 -1.368,0.287 -2.107,0.168 -4.479,-0.721 -8.973,-0.902 -13.478,-0.225 -1.295,0.195 -2.587,0.389 -3.556,1.422 -0.295,0.314 -0.443,0.648 -0.331,1.058 0.142,0.523 0.565,0.693 1.049,0.717 0.324,0.015 0.651,-0.028 0.977,-0.051 1.903,-0.136 3.789,0.063 5.675,0.282 0.435,0.051 0.629,0.228 0.771,0.691 0.219,0.715 0.484,0.793 1.169,0.651 0.32,-0.066 0.647,-0.132 0.945,-0.258 0.725,-0.306 1.407,-0.228 2.061,0.171 1.893,1.154 3.779,2.32 5.381,3.879 0.303,0.295 0.459,0.581 0.16,1.012 -0.512,0.74 -0.221,1.376 0.406,1.879 0.714,0.571 1.468,1.093 2.188,1.658 0.287,0.226 0.712,0.367 0.665,0.964"
             style="fill:#000000;fill-opacity:1;fill-rule:nonzero;stroke:none"
             id="path74" /></g><g
           id="g76"
           transform="translate(221.8885,302.3177)"><path
             d="m 0,0 c -0.175,0.226 -0.433,0.2 -0.67,0.221 -2.795,0.252 -5.597,0.334 -8.399,0.436 -1.856,0.068 -3.629,-0.306 -5.421,-0.63 -0.248,-0.045 -0.631,-0.062 -0.642,-0.526 1.58,-0.067 3.162,0.006 4.698,-0.228 3.156,-0.481 6.241,-0.013 9.339,0.417 C -0.723,-0.258 -0.303,-0.323 0,0 m -13.6,-14.848 c 1.046,-0.735 2.011,-0.623 2.876,-0.882 0.725,-0.217 1.016,-0.466 0.856,-0.816 -0.236,-0.515 -0.657,-0.274 -1.018,-0.222 -2.329,0.34 -4.661,0.66 -6.982,1.046 -1.104,0.184 -2.207,0.255 -3.318,0.288 -0.397,0.011 -0.591,0.252 -0.59,0.626 0.008,2.249 -0.091,2.12 1.906,2.306 1.556,0.145 3.127,0.149 4.695,0.322 -1.555,0.216 -3.11,0.369 -4.68,0.315 -0.327,-0.011 -0.653,-0.043 -0.98,-0.045 -0.737,-0.005 -0.914,0.145 -0.893,0.934 0.072,2.68 0.173,5.36 0.264,8.039 0.027,0.783 0.131,1.571 0.069,2.347 -0.066,0.849 0.358,1.168 1.085,1.272 0.05,0.493 -0.353,0.476 -0.604,0.576 -0.355,0.14 -0.5,0.377 -0.506,0.74 -0.013,0.85 -0.041,1.7 -0.048,2.55 -0.016,2.028 -0.045,4.055 -0.025,6.083 0.009,0.882 0.206,1.096 1.023,1.075 3.398,-0.089 6.805,-0.02 10.186,-0.497 0.465,-0.066 0.704,-0.315 0.711,-0.769 C -9.556,9.394 -9.582,8.347 -9.543,7.302 -9.516,6.554 -9.319,6.361 -8.609,6.33 -7.891,6.299 -7.171,6.324 -6.4,6.324 -7.339,6.077 -8.23,5.843 -9.489,5.512 c 1.574,-0.406 2.759,-0.754 3.963,-1.01 1.17,-0.248 2.347,0 3.513,0.132 1.557,0.176 3.107,0.42 4.661,0.62 0.388,0.05 0.783,0.06 1.174,0.057 C 4.205,5.307 4.4,5.091 4.425,4.701 4.446,4.379 4.512,4.06 4.535,3.738 4.567,3.288 4.759,2.792 4.485,2.401 4.185,1.972 3.63,2.219 3.202,2.101 3.031,2.054 2.762,2.04 2.851,1.768 2.903,1.608 3.059,1.432 3.212,1.364 3.685,1.153 4.179,0.992 4.768,0.773 4.796,-0.273 4.849,-1.314 4.844,-2.355 4.839,-3.463 3.976,-4.49 2.89,-4.674 2.313,-4.772 1.719,-4.785 1.131,-4.798 c -2.681,-0.06 -5.364,-0.08 -8.044,-0.164 -2.429,-0.075 -2.503,-0.158 -2.633,-2.587 -0.105,-1.959 -0.151,-3.921 -0.24,-5.881 -0.035,-0.777 -0.139,-0.911 -0.888,-1.036 -0.9,-0.15 -1.809,-0.239 -2.926,-0.382"
             style="fill:#000000;fill-opacity:1;fill-rule:nonzero;stroke:none"
             id="path78" /></g><g
           id="g80"
           transform="translate(256.9011,359.365)"><path
             d="m 0,0 c -0.106,-0.467 -0.526,-0.529 -0.865,-0.685 -2.553,-1.176 -5.124,-2.306 -7.783,-3.226 -0.555,-0.193 -1.083,-0.388 -1.205,-1.124 -0.079,-0.471 -0.068,-0.716 0.44,-0.853 0.328,-0.088 0.352,-0.387 0.071,-0.559 -0.385,-0.236 -0.829,-0.374 -1.227,-0.593 -0.337,-0.186 -0.654,-0.415 -0.961,-0.65 -0.187,-0.142 -0.072,-0.549 0.153,-0.632 0.698,-0.255 1.41,-0.247 2.126,-0.105 1.666,0.33 3.327,0.688 4.999,0.987 0.544,0.098 0.976,0.338 1.389,0.667 2.884,2.304 6.135,3.974 9.473,5.5 1.838,0.84 3.657,1.724 5.346,2.523 0.332,0.505 0.044,0.756 -0.073,1.039 -0.401,0.966 -0.297,1.188 0.676,1.253 2.414,0.161 4.829,0.299 7.245,0.441 0.325,0.02 0.653,0.023 0.978,0.002 C 20.886,3.979 21.031,3.892 21.07,3.804 21.11,3.715 21.082,3.536 21.014,3.47 20.305,2.78 19.476,2.251 18.597,1.818 17.653,1.354 16.791,0.773 15.925,0.185 13.978,-1.136 12.021,-2.444 10.036,-3.707 8.824,-4.479 7.571,-5.194 6.127,-5.474 5.945,-5.509 5.783,-5.649 5.609,-5.733 5.463,-5.803 5.398,-5.919 5.482,-6.056 c 0.055,-0.091 0.174,-0.207 0.261,-0.205 1.372,0.041 2.743,0.09 4.113,0.156 4.049,0.195 8.096,0.434 12.146,0.582 1.701,0.063 3.391,0.081 5.063,0.464 0.889,0.204 1.808,0.281 2.717,0.383 0.776,0.087 1.515,0.279 2.376,0.612 -0.718,0.888 -1.383,1.674 -2.008,2.49 -0.677,0.885 -1.238,1.847 -1.698,2.863 -0.429,0.948 -0.9,1.885 -0.993,2.94 0.134,0.077 0.24,0.185 0.358,0.2 3.622,0.461 2.772,0.687 4.49,-2.005 0.802,-1.256 1.31,-2.712 2.538,-3.689 0.217,-0.172 0.203,-0.608 0.353,-0.892 0.48,-0.911 0.884,-1.122 1.902,-0.926 1.142,0.22 2.272,0.496 3.568,0.783 -0.338,-0.872 -0.975,-1.204 -1.517,-1.62 -0.207,-0.159 -0.441,-0.284 -0.644,-0.446 -0.315,-0.252 -0.333,-0.513 -0.005,-0.789 0.147,-0.123 0.253,-0.295 0.4,-0.472 -0.836,-0.809 -1.769,-1.074 -2.866,-0.652 -0.244,0.094 -0.486,0.2 -0.738,0.265 -0.631,0.162 -1.13,-0.054 -1.452,-0.66 -0.276,-0.519 -0.478,-1.077 -0.76,-1.592 -0.471,-0.862 -0.953,-1.057 -1.939,-0.746 -1.884,0.595 -3.791,0.979 -5.782,0.89 -1.315,-0.058 -2.592,-0.339 -3.871,-0.594 -3.076,-0.612 -6.126,-1.339 -9.224,-1.848 -2.399,-0.393 -4.805,-0.549 -7.227,-0.544 -2.027,0.003 -4.055,0.037 -6.082,0.078 -1.961,0.04 -3.915,0.067 -5.803,-0.614 -0.501,-0.18 -1.044,-0.216 -1.452,0.248 -0.35,0.398 -0.795,0.394 -1.26,0.368 -3.919,-0.227 -7.843,-0.208 -11.767,-0.243 -0.646,-0.006 -1.295,-0.144 -1.935,-0.259 -0.841,-0.151 -1.685,-0.26 -2.535,-0.17 -0.724,0.076 -1.188,0.637 -1.168,1.327 0.018,0.611 0.431,1.087 1.091,1.194 0.318,0.051 0.651,0.05 0.973,0.023 1.325,-0.112 2.603,0.102 3.865,0.485 1.31,0.399 2.615,0.803 3.963,1.089 1.008,0.215 1.964,0.696 2.927,1.096 0.225,0.093 0.402,0.325 0.572,0.518 0.075,0.086 0.122,0.245 0.099,0.353 -0.018,0.085 -0.167,0.21 -0.25,0.204 -0.585,-0.043 -1.169,-0.11 -1.752,-0.181 -0.788,-0.095 -1.568,-0.092 -2.325,0.181 -0.542,0.194 -0.861,0.577 -0.894,1.163 -0.033,0.585 0.226,1.027 0.756,1.254 0.353,0.151 0.743,0.231 1.124,0.3 0.347,0.064 0.561,0.173 0.615,0.578 0.044,0.33 0.409,0.258 0.65,0.292 1.488,0.212 2.977,0.42 4.467,0.613 3.176,0.412 6.352,0.821 9.531,1.213 C -1.039,0.064 -0.518,0.187 0,0"
             style="fill:#000000;fill-opacity:1;fill-rule:nonzero;stroke:none"
             id="path82" /></g><g
           id="g84"
           transform="translate(219.9091,228.7957)"><path
             d="m 0,0 0.079,0.119 -0.123,0.016 z m -11.478,-10.598 c 0.59,-0.152 1.066,-0.279 1.838,0.234 -0.801,0.033 -1.277,0.139 -1.838,-0.234 m -8.763,7.613 c -0.001,-0.055 -0.001,-0.11 -0.001,-0.166 h 2.433 c 0.001,0.056 0.001,0.111 0.002,0.166 z m 12.06,4.879 h -3.61 c -0.29,0.464 -0.134,0.765 0.023,1.038 0.436,0.756 0.556,1.595 0.707,2.432 0.211,1.167 0.889,1.834 2.108,1.958 1.353,0.137 2.671,0.462 4.071,0.132 C -4.016,7.251 -3.061,7.447 -2.146,7.426 -1.494,7.411 -0.837,7.374 -0.193,7.274 0.901,7.104 1.264,6.731 1.364,5.605 1.515,3.912 1.518,2.214 1.444,0.514 1.415,-0.159 1.14,-0.749 0.943,-1.368 0.861,-1.625 0.692,-1.917 0.439,-1.887 c -1.146,0.131 -1.192,-0.857 -1.13,-1.402 0.196,-1.722 -0.866,-2.838 -1.77,-3.967 -0.89,-1.112 -2.042,-2.017 -3.093,-2.999 -0.658,-0.614 -1.502,-0.759 -2.355,-0.842 -2.217,-0.216 -4.44,-0.143 -6.662,-0.102 -3.52,0.065 -6.61,1.377 -9.475,3.309 -0.427,0.288 -0.78,0.689 -1.153,1.051 -0.317,0.309 0.347,0.5 0.14,0.693 -0.158,0.148 -0.498,0.093 -0.752,0.151 -0.477,0.109 -0.786,0.467 -1.074,0.816 -1.376,1.671 -2.552,3.469 -3.371,5.482 -0.189,0.466 0.009,0.753 0.524,0.745 0.784,-0.012 1.572,-0.015 2.35,-0.099 3.582,-0.385 7.178,-0.398 10.773,-0.443 0.392,-0.005 0.815,-0.11 1.17,0.002 0.795,0.252 1.466,-0.882 2.151,-0.269 0.738,0.66 1.611,0.392 2.398,0.629 0.744,0.223 1.539,0.275 2.306,0.429 0.169,0.034 0.314,0.182 0.469,0.277 -0.022,0.107 -0.044,0.213 -0.066,0.32"
             style="fill:#000000;fill-opacity:1;fill-rule:nonzero;stroke:none"
             id="path86" /></g><g
           id="g88"
           transform="translate(194.3445,259.1126)"><path
             d="m 0,0 c -0.052,0.272 -0.171,0.49 -0.466,0.553 -0.569,0.121 -1.181,0.111 -1.644,0.551 0.009,0.397 0.317,0.515 0.598,0.664 0.173,0.092 0.345,0.192 0.5,0.31 4.565,3.468 9.696,3.457 14.987,2.43 0.379,-0.073 0.749,-0.23 1.104,-0.392 1.663,-0.76 3.303,-1.568 4.785,-2.656 0.08,-0.059 0.127,-0.244 0.098,-0.344 C 19.938,1.032 19.78,0.93 19.683,0.932 c -0.511,0.012 -1.022,0.053 -1.842,0.104 0.798,-0.923 1.754,-1.311 2.113,-2.228 0.042,-0.109 0.349,-0.166 0.531,-0.16 0.39,0.012 0.78,0.078 1.169,0.128 0.524,0.067 0.896,-0.196 1.144,-0.604 0.679,-1.116 1.296,-2.262 1.662,-3.532 0.202,-0.703 -0.179,-1.422 0.355,-2.175 0.404,-0.57 0.312,-1.51 0.387,-2.291 0.069,-0.714 0.104,-1.436 0.083,-2.153 -0.02,-0.705 -0.262,-0.965 -0.905,-1.069 -1.613,-0.262 -3.228,-0.514 -4.846,-0.746 -0.383,-0.055 -0.783,-0.041 -1.172,-0.011 -0.911,0.072 -1.82,0.244 -2.73,0.242 -1.098,-0.002 -1.702,0.515 -1.981,1.517 -0.052,0.186 -0.084,0.377 -0.122,0.551 0.264,0.344 0.597,0.225 0.901,0.176 0.645,-0.106 1.323,-0.14 1.922,-0.374 2.046,-0.799 3.81,0.011 5.576,0.76 0.055,0.511 -0.278,0.456 -0.492,0.457 -2.225,0.013 -4.449,0.014 -6.674,0.007 -1.572,-0.006 -1.73,0.098 -2.151,1.641 -0.138,0.504 -0.195,1.031 -0.34,1.532 -0.285,0.986 -0.95,1.488 -1.986,1.611 -1.282,0.152 -2.348,-0.377 -3.243,-1.12 -0.788,-0.653 -1.52,-0.874 -2.504,-0.681 -0.828,0.162 -1.691,0.158 -2.539,0.209 -2.547,0.156 -5.094,0.295 -7.64,0.46 -0.73,0.047 -0.907,0.299 -0.778,1.022 0.363,2.041 1.221,3.846 2.571,5.424 0.42,0.492 0.887,0.723 1.541,0.632 C -1.531,0.153 -0.748,0.099 0.041,0.029 0.644,-0.06 1.238,-0.215 2.221,0.014 1.214,0.18 0.602,0.239 0,0"
             style="fill:#000000;fill-opacity:1;fill-rule:nonzero;stroke:none"
             id="path90" /></g><g
           id="g92"
           transform="translate(217.1666,317.9666)"><path
             d="M 0,0 C 2.353,-0.257 5.627,0.183 8.215,1.069 8.504,1.168 8.858,1.231 8.862,1.66 6.658,2.168 4.403,2.026 1.09,1.173 1.84,1.017 2.642,1.268 3.45,0.864 2.483,-0.056 1.187,0.484 0,0 M 3.837,4.418 C 4.806,3.776 5.787,3.776 6.768,3.783 7.487,3.789 8.206,3.82 8.925,3.816 9.399,3.813 9.645,3.52 9.641,3.069 9.631,2.028 9.611,0.986 9.558,-0.053 9.5,-1.189 8.825,-1.883 7.767,-2.077 6.164,-2.372 4.558,-2.698 2.903,-2.579 c -1.956,0.141 -3.915,0.238 -5.874,0.348 -0.765,0.044 -1.594,0.266 -1.961,-0.765 -0.105,-0.295 -0.443,-0.23 -0.69,-0.222 -3.528,0.111 -7.056,0.232 -10.584,0.349 -0.309,0.01 -0.482,0.185 -0.52,0.471 -0.173,1.3 -0.163,2.607 -0.086,3.914 0.026,0.458 0.314,0.664 0.759,0.735 0.831,0.132 1.656,0.298 2.476,0.628 -0.806,0.075 -1.613,0.143 -2.418,0.231 -0.441,0.048 -0.702,0.313 -0.771,0.751 -0.03,0.194 -0.04,0.39 -0.05,0.586 -0.172,3.212 0.159,2.918 2.663,2.876 C -11.081,7.272 -8.009,7.165 -4.936,7.12 -2.583,7.085 -0.229,7.122 2.125,7.102 3.17,7.093 4.215,6.986 5.26,6.993 5.819,6.996 6.533,6.937 6.416,7.897 6.408,7.964 6.711,8.147 6.864,8.142 8.768,8.072 10.005,6.447 9.521,4.66 9.417,4.278 9.065,4.201 8.735,4.251 7.174,4.49 5.605,4.426 3.837,4.418"
             style="fill:#000000;fill-opacity:1;fill-rule:nonzero;stroke:none"
             id="path94" /></g><g
           id="g96"
           transform="translate(201.7323,231.2426)"><path
             d="m 0,0 c -0.901,-0.336 -1.563,-0.245 -2.206,-0.203 -3.259,0.216 -6.516,0.472 -9.774,0.696 -0.674,0.047 -1.032,0.318 -1.209,1.01 -0.427,1.659 -0.589,3.343 -0.638,5.044 -0.01,0.363 0.166,0.637 0.568,0.639 0.522,0.002 1.046,-0.004 1.565,-0.054 1.82,-0.177 3.637,-0.385 5.457,-0.556 0.5,-0.047 1.009,-0.007 1.745,-0.007 -1.518,0.841 -3.003,0.734 -4.39,1.043 -1.465,0.327 -2.953,0.551 -4.434,0.8 -0.533,0.09 -0.798,0.371 -0.828,0.905 -0.051,0.914 -0.135,1.826 -0.166,2.74 -0.027,0.79 0.221,1.021 1.079,0.97 1.957,-0.116 3.911,-0.271 5.867,-0.4 1.368,-0.09 2.737,-0.186 4.107,-0.235 1.609,-0.057 1.568,-0.095 1.71,-1.471 C -1.352,9.036 -1.141,7.152 -1.004,5.263 -0.876,3.507 -0.881,1.739 0,0"
             style="fill:#000000;fill-opacity:1;fill-rule:nonzero;stroke:none"
             id="path98" /></g><g
           id="g100"
           transform="translate(286.7852,365.4967)"><path
             d="M 0,0 C -0.571,-0.414 -1.044,-0.366 -1.49,-0.405 -2.58,-0.499 -2.581,-0.488 -3.113,0.65 -3.356,1.169 -3.748,1.281 -4.211,0.946 -4.421,0.794 -4.648,0.64 -4.799,0.436 -5.582,-0.623 -6.693,-0.811 -7.911,-0.88 c -3.06,-0.172 -6.114,-0.504 -9.176,-0.577 -1.428,-0.034 -2.812,-0.287 -4.221,-0.393 -1.43,-0.108 -2.859,-0.246 -4.288,-0.367 -0.253,-0.021 -0.508,-0.025 -0.774,-0.037 0.023,0.169 0.005,0.347 0.056,0.37 3.438,1.565 6.819,3.278 10.513,4.196 1.517,0.378 3.043,0.723 4.571,1.059 0.377,0.082 0.777,0.102 1.165,0.093 2.87,-0.07 5.739,-0.152 8.608,-0.237 C -1.198,3.22 -0.931,3.204 -0.685,3.131 -0.513,3.081 -0.272,2.851 -0.45,2.713 -1.366,2.001 -0.839,1.378 -0.396,0.725 -0.252,0.514 -0.149,0.276 0,0"
             style="fill:#000000;fill-opacity:1;fill-rule:nonzero;stroke:none"
             id="path102" /></g><g
           id="g104"
           transform="translate(304.9616,545.6171)"><path
             d="m 0,0 c -0.777,0.204 -2.005,-0.389 -2.6,0.475 -0.521,0.757 0.316,1.717 0.405,2.616 0.064,0.646 0.319,1.294 0.273,1.926 -0.131,1.782 0.394,3.491 0.488,5.248 0.041,0.77 0.177,1.536 0.147,2.323 -0.035,0.93 0.218,1.176 1.11,1.201 0.913,0.026 1.828,0.026 2.741,0 C 3.343,13.766 3.516,13.606 3.507,12.875 3.497,12.16 3.5,11.426 3.344,10.735 2.835,8.485 2.776,6.211 2.82,3.923 2.841,2.815 2.821,1.705 2.804,0.596 2.796,0.063 2.635,-0.096 2.106,-0.089 1.453,-0.079 0.802,-0.035 0,0"
             style="fill:#000000;fill-opacity:1;fill-rule:nonzero;stroke:none"
             id="path106" /></g><g
           id="g108"
           transform="translate(200.2258,250.895)"><path
             d="m 0,0 c -0.624,-1.241 -0.594,-2.53 -0.534,-3.836 0.056,-1.219 -0.001,-1.26 -1.142,-1.14 -1.23,0.128 -2.456,0.296 -3.682,0.455 -2.195,0.283 -4.391,0.564 -6.584,0.864 -0.931,0.127 -1.042,0.269 -1.127,1.257 -0.033,0.388 -0.078,0.782 -0.055,1.169 0.077,1.289 0.508,1.69 1.817,1.679 C -8.051,0.42 -4.794,0.382 -1.538,0.335 -1.093,0.329 -0.625,0.404 0,0"
             style="fill:#000000;fill-opacity:1;fill-rule:nonzero;stroke:none"
             id="path110" /></g><g
           id="g112"
           transform="translate(205.918,280.0468)"><path
             d="M 0,0 C -1.306,0 -2.614,0.041 -3.918,-0.012 -5.093,-0.06 -5.624,0.651 -5.969,2.106 -6.1,2.658 -5.988,3.276 -5.936,3.86 -5.87,4.594 -5.667,4.722 -4.909,4.634 -1.862,4.277 1.183,3.907 4.233,3.575 6.404,3.339 6.631,3.145 5.613,1.059 5.498,0.824 5.355,0.604 5.237,0.371 5.001,-0.094 4.614,-0.266 4.112,-0.24 3.003,-0.182 1.894,-0.127 0.784,-0.077 0.523,-0.065 0.261,-0.075 0,-0.075 0,-0.05 0,-0.025 0,0"
             style="fill:#000000;fill-opacity:1;fill-rule:nonzero;stroke:none"
             id="path114" /></g><g
           id="g116"
           transform="translate(266.767,252.2733)"><path
             d="M 0,0 C 1.373,0 2.746,0.005 4.12,-0.002 5.052,-0.006 5.203,-0.098 5.222,-0.954 5.244,-1.991 5.526,-3.022 5.293,-4.064 4.291,-4.525 3.238,-4.221 2.211,-4.255 1.1,-4.291 -0.014,-4.208 -1.125,-4.234 c -1.098,-0.025 -2.204,0.087 -3.261,-0.444 -0.567,-0.284 -0.956,0.069 -1.008,0.764 -0.033,0.456 -0.04,0.915 -0.034,1.372 0.032,2.519 -0.23,2.42 2.294,2.293 0.521,-0.027 1.046,-0.016 1.568,0.007 0.523,0.022 1.044,0.081 1.565,0.123 C 0,-0.079 0,-0.04 0,0"
             style="fill:#000000;fill-opacity:1;fill-rule:nonzero;stroke:none"
             id="path118" /></g><g
           id="g120"
           transform="translate(424.6909,255.9602)"><path
             d="m 0,0 c 0.215,-0.851 0.27,-1.751 0.245,-2.622 -0.286,-0.3 -0.616,-0.319 -0.94,-0.299 -3.08,0.188 -6.128,-0.199 -9.182,-0.496 -0.39,-0.038 -0.78,-0.081 -1.171,-0.097 -0.448,-0.019 -0.747,0.18 -0.816,0.648 -0.029,0.194 -0.049,0.389 -0.065,0.584 -0.229,2.752 -0.094,2.389 2.136,2.482 2.74,0.115 5.48,0.321 8.224,0.1 C -1.056,0.258 -0.518,0.339 0,0"
             style="fill:#000000;fill-opacity:1;fill-rule:nonzero;stroke:none"
             id="path122" /></g><g
           id="g124"
           transform="translate(310.075,434.4532)"><path
             d="m 0,0 c 0,0.326 -0.016,0.653 0.009,0.978 0.008,0.102 0.106,0.241 0.198,0.28 0.095,0.04 0.27,0.022 0.348,-0.044 0.946,-0.798 1.882,-1.608 2.816,-2.42 0.249,-0.217 0.428,-0.472 0.509,-0.811 0.721,-3.031 2.279,-5.67 3.902,-8.277 0.102,-0.165 0.241,-0.336 0.259,-0.514 0.017,-0.167 -0.058,-0.392 -0.175,-0.512 -0.155,-0.159 -0.364,-0.094 -0.371,0.152 -0.021,0.69 -0.476,1.041 -0.999,1.338 -0.34,0.194 -0.711,0.334 -1.048,0.533 C 1.905,-7.212 -0.078,-4.203 0,0"
             style="fill:#000000;fill-opacity:1;fill-rule:nonzero;stroke:none"
             id="path126" /></g><g
           id="g128"
           transform="translate(395.6623,313.8235)"><path
             d="m 0,0 c -1.007,-0.086 -1.98,-0.19 -2.956,-0.247 -0.731,-0.043 -0.888,0.119 -0.914,0.907 -0.021,0.651 -0.033,1.307 0.021,1.954 0.071,0.843 0.368,1.181 1.161,1.347 0.637,0.133 1.287,0.206 1.933,0.285 C -0.568,4.269 -0.3,4.293 -0.19,4.189 0.663,3.373 1.778,3.664 2.77,3.451 3.551,3.283 3.732,3.097 3.833,2.288 3.841,2.224 3.847,2.159 3.848,2.093 3.89,0.396 4.44,-0.392 1.921,-0.014 1.283,0.081 0.619,0 0,0"
             style="fill:#000000;fill-opacity:1;fill-rule:nonzero;stroke:none"
             id="path130" /></g><g
           id="g132"
           transform="translate(278.259,370.434)"><path
             d="M 0,0 C 0.764,0.466 1.519,0.947 2.294,1.393 2.768,1.667 2.893,2.042 2.756,2.541 2.738,2.604 2.729,2.669 2.709,2.731 2.175,4.407 2.384,4.351 3.909,4.389 4.887,4.413 5.864,4.427 6.841,4.438 7.369,4.445 7.677,4.197 7.79,3.661 8.006,2.642 8.266,1.632 8.489,0.614 8.595,0.132 8.401,-0.132 7.919,-0.194 7.596,-0.236 7.269,-0.261 6.945,-0.262 4.667,-0.268 2.39,-0.265 0.113,-0.265 0.075,-0.177 0.038,-0.088 0,0"
             style="fill:#000000;fill-opacity:1;fill-rule:nonzero;stroke:none"
             id="path134" /></g><g
           id="g136"
           transform="translate(223.8627,565.959)"><path
             d="m 0,0 c -0.167,0.022 -0.427,0.04 -0.681,0.092 -0.893,0.182 -1.218,0.677 -0.979,1.546 0.364,1.333 1.191,2.3 2.441,2.876 C 1.812,4.989 2.948,4.642 3.517,3.727 4.112,2.772 3.834,1.47 2.862,0.797 2.034,0.225 1.09,0.008 0,0"
             style="fill:#000000;fill-opacity:1;fill-rule:nonzero;stroke:none"
             id="path138" /></g><g
           id="g140"
           transform="translate(394.9648,282.0505)"><path
             d="M 0,0 C -1.043,0 -2.086,0.001 -3.13,0 -3.968,-0.002 -4.442,0.464 -4.715,1.208 -4.884,1.669 -4.697,2.002 -4.217,1.999 -3.63,1.996 -3.035,2.011 -2.46,1.916 -0.201,1.541 2.068,1.36 4.357,1.404 4.726,1.411 5.01,1.272 5.027,0.876 5.043,0.512 4.783,0.25 4.477,0.145 4.113,0.02 3.712,-0.039 3.326,-0.047 2.218,-0.071 1.109,-0.056 0,-0.056 0,-0.037 0,-0.019 0,0"
             style="fill:#000000;fill-opacity:1;fill-rule:nonzero;stroke:none"
             id="path142" /></g><g
           id="g144"
           transform="translate(322.7688,494.7277)"><path
             d="M 0,0 C -1.053,-0.197 -1.857,-0.348 -2.708,-0.507 -2.156,1.273 -1.923,1.333 0,0"
             style="fill:#000000;fill-opacity:1;fill-rule:nonzero;stroke:none"
             id="path146" /></g><g
           id="g148"
           transform="translate(263.3855,362.3079)"><path
             d="m 0,0 c -0.852,-0.704 -1.846,-1.13 -2.866,-1.517 -0.349,0.459 0.051,0.649 0.243,0.826 C -1.903,-0.03 -0.964,-0.014 0,0"
             style="fill:#000000;fill-opacity:1;fill-rule:nonzero;stroke:none"
             id="path150" /></g><g
           id="g152"
           transform="translate(368.0941,359.2152)"><path
             d="M 0,0 C 0.226,0.542 0.654,0.737 1.186,0.748 1.299,0.75 1.452,0.672 1.522,0.581 1.694,0.354 1.477,0.267 1.326,0.178 0.927,-0.057 0.512,-0.199 0,0"
             style="fill:#000000;fill-opacity:1;fill-rule:nonzero;stroke:none"
             id="path154" /></g><g
           id="g156"
           transform="translate(223.8588,309.0061)"><path
             d="M 0,0 C -0.426,-0.189 -0.835,-0.298 -1.225,-0.01 -0.805,0.228 -0.393,0.087 0,0"
             style="fill:#000000;fill-opacity:1;fill-rule:nonzero;stroke:none"
             id="path158" /></g><g
           id="g160"
           transform="translate(317.3328,514.0635)"><path
             d="m 0,0 c -0.088,-0.072 -0.166,-0.175 -0.266,-0.205 -0.061,-0.018 -0.156,0.077 -0.235,0.122 0.042,0.021 0.085,0.062 0.126,0.06 0.113,-0.004 0.224,-0.025 0.345,-0.028 C -0.021,-0.039 0,0 0,0"
             style="fill:#000000;fill-opacity:1;fill-rule:nonzero;stroke:none"
             id="path162" /></g><g
           id="g164"
           transform="translate(232.9694,572.8063)"><path
             d="M 0,0 C 0.118,-0.089 0.128,-0.173 0.029,-0.247 0.027,-0.249 -0.025,-0.202 -0.035,-0.171 -0.121,0.076 -0.039,-0.284 0.056,-0.039 0.052,-0.036 0,0 0,0"
             style="fill:#000000;fill-opacity:1;fill-rule:nonzero;stroke:none"
             id="path166" /></g><g
           id="g168"
           transform="translate(291.3891,415.466)"><path
             d="M 0,0 C -0.016,0.046 -0.032,0.092 -0.048,0.138 -0.144,0.039 -0.118,0.016 0.033,0.072 0.035,0.075 0,0 0,0"
             style="fill:#000000;fill-opacity:1;fill-rule:nonzero;stroke:none"
             id="path170" /></g><g
           id="g172"
           transform="translate(230.6747,571.0795)"><path
             d="m 0,0 -0.062,-0.09 c 0,0 0.103,0.037 0.102,0.04 C 0.04,-0.047 0,0 0,0"
             style="fill:#000000;fill-opacity:1;fill-rule:nonzero;stroke:none"
             id="path174" /></g><g
           id="g176"
           transform="translate(231.0925,571.614)"><path
             d="m 0,0 c -0.14,-0.176 -0.28,-0.353 -0.419,-0.532 0.001,-0.002 0.041,-0.05 0.041,-0.053 0.144,0.21 0.288,0.422 0.431,0.635 z"
             style="fill:#000000;fill-opacity:1;fill-rule:nonzero;stroke:none"
             id="path178" /></g><g
           id="g180"
           transform="translate(295.6658,419.1185)"><path
             d="M 0,0 C -0.257,0.052 0.009,0.261 -0.082,0.016 -0.083,0.014 -0.036,-0.005 -0.012,-0.016 -0.029,0.008 -0.046,0.032 -0.058,0.052 -0.052,0.048 0,0 0,0"
             style="fill:#000000;fill-opacity:1;fill-rule:nonzero;stroke:none"
             id="path182" /></g><g
           id="g184"
           transform="translate(231.1455,571.6636)"><path
             d="M 0,0 C 0,-0.035 -0.001,-0.071 -0.001,-0.106 0.073,-0.003 0.053,0.012 -0.056,-0.055 -0.053,-0.05 0,0 0,0"
             style="fill:#000000;fill-opacity:1;fill-rule:nonzero;stroke:none"
             id="path186" /></g><g
           id="g188"
           transform="translate(279.0261,414.7988)"><path
             d="M 0,0 C 0.086,0.264 -0.05,0.436 -0.229,0.607 -0.438,0.807 -0.627,1.029 -0.825,1.241 -0.656,1.196 -0.476,1.174 -0.32,1.102 0.201,0.862 0.276,0.478 0,0"
             style="fill:#000000;fill-opacity:1;fill-rule:nonzero;stroke:none"
             id="path190" /></g><g
           id="g192"
           transform="translate(278.2783,415.9747)"><path
             d="M 0,0 C -0.261,0.05 -0.464,0.157 -0.459,0.468 -0.202,0.414 -0.002,0.304 0,0"
             style="fill:#000000;fill-opacity:1;fill-rule:nonzero;stroke:none"
             id="path194" /></g></g></g><g
       id="g196"><g
         id="g198"
         clip-path="url(#clipPath202)"><g
           id="g204"
           transform="translate(210.4386,338.6218)"><path
             d="M 0,0 C 4.962,-0.001 8.979,4.001 8.983,8.95 8.987,13.917 4.986,17.946 0.049,17.949 -4.927,17.952 -8.964,13.957 -8.966,9.028 -8.969,4.019 -4.978,0.001 0,0 m 0.002,-1.562 c -5.803,0.001 -10.532,4.737 -10.53,10.543 0.002,5.802 4.743,10.537 10.545,10.531 C 5.835,19.506 10.554,14.766 10.545,8.936 10.537,3.155 5.797,-1.564 0.002,-1.562"
             style="fill:#000000;fill-opacity:1;fill-rule:nonzero;stroke:none"
             id="path206" /></g><g
           id="g208"
           transform="translate(207.4903,347.6916)"><path
             d="M 0,0 C 0.471,0 0.915,-0.003 1.358,0.001 1.6,0.004 1.844,0.007 2.084,0.033 2.67,0.095 3.207,0.267 3.602,0.747 4.032,1.27 4.135,1.883 4.121,2.534 4.1,3.494 3.582,4.185 2.638,4.31 1.775,4.426 0.894,4.41 0,4.452 Z M -1.543,5.789 C 0.072,5.726 1.675,5.766 3.249,5.574 4.951,5.368 5.961,3.784 5.722,2.072 5.517,0.608 4.673,-0.303 3.319,-0.856 c 1.372,-1.68 2.735,-3.346 4.139,-5.065 -0.672,0 -1.283,-0.012 -1.892,0.012 -0.107,0.004 -0.227,0.144 -0.31,0.247 -1.111,1.385 -2.22,2.772 -3.32,4.166 -0.12,0.152 -0.239,0.213 -0.429,0.208 C 1.013,-1.3 0.52,-1.292 -0.011,-1.292 v -4.615 h -1.532 z"
             style="fill:#000000;fill-opacity:1;fill-rule:nonzero;stroke:none"
             id="path210" /></g></g></g></g></svg>
