<?xml version="1.0" standalone="no"?>
<!DOCTYPE svg PUBLIC "-//W3C//DTD SVG 20010904//EN"
 "http://www.w3.org/TR/2001/REC-SVG-20010904/DTD/svg10.dtd">
<svg version="1.0" xmlns="http://www.w3.org/2000/svg"
 width="403.000000pt" height="619.000000pt" viewBox="0 0 403.000000 619.000000"
 preserveAspectRatio="xMidYMid meet">

<g transform="translate(0.000000,619.000000) scale(0.100000,-0.100000)"
fill="#000000" stroke="none">
<path d="M1830 5621 c-106 -9 -167 -21 -226 -48 -51 -24 -130 -83 -144 -109
-7 -12 -31 -27 -54 -34 -22 -6 -59 -23 -81 -38 -22 -14 -69 -41 -105 -61 -36
-19 -99 -55 -140 -81 -92 -56 -149 -84 -215 -103 -27 -8 -90 -32 -140 -52 -49
-20 -121 -48 -160 -62 -38 -14 -83 -31 -100 -38 -16 -7 -37 -16 -45 -19 -8 -3
8 -4 36 -1 48 5 243 68 292 94 14 8 22 8 22 1 0 -5 -30 -26 -67 -45 -38 -19
-113 -60 -168 -90 -55 -30 -116 -63 -136 -74 -36 -20 -65 -48 -58 -56 13 -12
172 61 332 154 49 28 91 51 93 51 2 0 26 15 52 33 52 36 68 44 192 94 47 18
99 40 117 48 17 8 39 15 50 15 17 0 -13 -21 -142 -99 -27 -17 -63 -42 -80 -56
l-30 -25 41 14 c64 22 140 63 253 137 58 38 108 68 112 67 3 -2 -15 -35 -41
-74 l-47 -72 44 30 c24 17 47 28 49 25 3 -3 -1 -47 -10 -98 -9 -51 -16 -114
-16 -141 l0 -48 48 -1 47 -1 -36 -15 c-28 -11 -38 -22 -43 -45 -10 -50 -7
-198 4 -198 16 0 12 -30 -5 -36 -19 -8 -19 -20 5 -69 11 -22 19 -49 20 -60 0
-26 -93 -309 -125 -380 -14 -29 -25 -57 -25 -61 0 -4 -23 -52 -50 -106 -83
-163 -132 -393 -109 -511 8 -37 19 -63 30 -70 11 -7 19 -23 19 -36 0 -13 22
-57 50 -98 27 -40 50 -77 50 -82 0 -5 25 -39 55 -77 60 -75 65 -92 85 -269 7
-55 14 -108 17 -117 6 -24 34 -23 40 2 9 33 48 25 72 -15 11 -19 25 -35 31
-35 5 0 10 -8 10 -17 0 -10 13 -40 28 -68 21 -39 32 -50 52 -50 22 0 25 5 28
37 2 29 8 38 22 38 10 0 22 5 25 10 9 14 55 12 106 -5 70 -23 295 -51 392 -47
95 4 114 16 40 26 -27 4 -59 13 -72 20 -23 13 -23 13 15 19 73 12 281 8 292
-6 6 -7 12 -39 14 -72 3 -58 4 -59 38 -69 30 -8 31 -10 13 -14 -14 -2 -25 -13
-29 -27 -12 -50 -53 -73 -149 -85 -49 -7 -92 -15 -95 -17 -5 -6 106 4 150 13
l25 5 -22 -19 c-13 -11 -23 -29 -23 -40 0 -35 -70 -71 -155 -79 -79 -8 -94
-19 -54 -41 17 -9 52 -12 119 -9 81 4 110 1 185 -20 50 -14 114 -27 143 -30
47 -4 52 -3 52 15 0 31 52 52 131 52 37 0 71 5 74 10 4 6 25 8 53 4 32 -4 58
-1 82 9 l35 15 -60 1 c-148 2 -320 86 -397 193 -18 27 -22 43 -20 102 2 39 7
73 12 74 6 2 10 10 10 18 0 7 10 16 23 19 14 4 30 20 39 40 20 44 11 47 -85
35 -39 -5 -92 -9 -117 -9 -82 1 -6 22 100 29 91 5 95 6 92 27 -4 30 5 46 93
153 l75 93 0 63 c0 61 22 120 63 172 16 20 25 -9 27 -78 l1 -55 17 33 c13 27
14 37 4 53 -10 16 -10 19 3 19 11 0 15 12 15 49 0 79 44 163 147 281 43 49 73
101 73 126 0 14 5 34 10 45 8 14 7 26 -3 44 l-13 26 -51 -40 c-28 -23 -54 -48
-57 -57 -4 -9 -9 -15 -11 -12 -3 3 22 56 55 118 33 63 60 117 60 122 0 12 -77
31 -102 24 -12 -3 -32 -20 -43 -38 -17 -27 -94 -85 -117 -87 -3 -1 -4 8 -1 19
7 28 -21 26 -41 -2 -9 -12 -17 -20 -19 -17 -2 2 -27 42 -57 89 -83 133 -122
168 -132 115 -4 -17 6 -41 32 -79 33 -49 39 -66 45 -137 8 -89 -4 -124 -24
-68 -6 17 -11 40 -11 50 0 27 -39 96 -74 132 -17 18 -63 59 -101 92 -65 57
-72 60 -121 60 -61 0 -73 8 -51 33 24 27 21 38 -18 62 -24 15 -35 29 -35 45 0
13 -11 31 -24 42 -14 10 -43 42 -65 71 -36 45 -46 52 -79 53 l-37 1 28 11 c15
6 27 14 27 18 0 3 -17 28 -38 55 -48 60 -112 173 -133 234 -14 41 -19 45 -52
48 -20 2 -37 0 -37 -4 0 -13 71 -138 99 -174 45 -58 73 -120 67 -149 -7 -29 1
-44 27 -54 24 -9 21 -23 -5 -32 l-23 -7 25 -7 c22 -6 24 -11 22 -52 -3 -38 2
-51 32 -89 20 -25 36 -51 36 -58 0 -10 14 -11 60 -6 42 5 60 3 60 -5 0 -6 -11
-11 -25 -11 -30 0 -43 -24 -25 -45 18 -22 12 -24 -53 -14 -64 10 -77 7 -77
-21 0 -13 9 -20 30 -24 17 -3 45 -9 63 -12 l32 -7 -40 -14 c-22 -8 -69 -21
-104 -30 -59 -15 -65 -19 -82 -57 -31 -68 -28 -71 54 -72 88 -1 169 -12 162
-23 -8 -14 -158 -69 -203 -74 -24 -3 -46 -7 -48 -10 -3 -2 -6 -31 -7 -63 l-2
-59 100 -6 c55 -3 83 -6 63 -7 -60 -3 -90 -19 -83 -42 8 -24 7 -24 -34 -4 -18
9 -34 14 -36 13 -2 -2 3 -27 10 -56 14 -54 28 -79 84 -153 28 -38 31 -46 17
-48 -10 -2 -16 -7 -14 -10 2 -4 16 -32 31 -62 31 -64 62 -101 103 -122 171
-87 258 -119 341 -125 74 -6 92 -23 25 -23 -21 0 -69 -13 -107 -30 -88 -37
-118 -38 -47 -2 l53 28 -53 22 c-65 27 -162 30 -196 6 -39 -27 -308 -72 -356
-60 -53 13 -13 26 82 26 83 0 93 2 77 14 -18 13 -18 14 1 24 10 5 47 16 82 22
34 7 64 15 66 19 2 3 -28 6 -67 7 -177 1 -219 5 -253 25 -38 21 -66 24 -92 10
-9 -5 -26 -5 -37 0 -13 5 -15 8 -5 8 13 1 13 3 1 10 -12 8 -10 12 10 21 14 7
34 26 44 42 l18 31 -74 -6 c-92 -8 -199 6 -211 27 -5 9 -13 16 -19 16 -5 0
-41 26 -79 57 -75 62 -85 80 -141 263 -22 72 -23 74 -29 40 -6 -42 -16 -25
-26 49 -6 48 6 114 57 316 23 91 125 394 145 434 8 14 14 35 14 45 0 28 41
137 61 164 10 13 59 51 111 85 51 34 92 67 91 72 -1 6 -17 13 -35 16 -39 7
-24 15 46 24 50 7 95 42 96 75 0 8 18 43 40 78 39 61 40 62 84 62 39 0 45 3
56 30 14 34 75 88 165 146 33 21 103 69 156 106 167 118 171 119 549 148 368
28 405 34 398 68 -3 15 -23 17 -183 18 -173 2 -259 6 -355 19 -70 10 -260 65
-313 92 -27 13 -62 26 -78 28 -32 4 -38 7 -71 37 -56 49 -196 72 -368 59z
m211 -201 c14 -8 19 -21 19 -53 0 -24 -5 -48 -12 -55 -18 -18 -62 -14 -92 9
-66 52 9 139 85 99z m-621 -750 c0 -5 -10 -10 -22 -10 -19 0 -20 2 -8 10 19
13 30 13 30 0z m754 -512 c9 -12 16 -33 16 -46 0 -20 -4 -23 -32 -20 -25 2
-35 9 -42 29 -19 54 26 83 58 37z m74 -377 c18 -11 -18 -21 -78 -21 -44 0 -44
1 -20 14 29 16 79 20 98 7z m-144 -36 c-7 -17 -30 -20 -39 -6 -3 5 5 12 17 14
13 2 24 5 25 6 1 0 0 -6 -3 -14z m446 -59 c0 -11 -19 -15 -25 -6 -3 5 1 10 9
10 9 0 16 -2 16 -4z m288 -225 c-4 -34 -23 -37 -43 -7 -13 20 -14 29 -5 46 11
21 12 21 31 4 12 -11 19 -28 17 -43z m-667 -60 c-31 -16 -63 -26 -77 -23 -51
9 24 51 91 51 l40 0 -54 -28z m612 -94 c-1 -34 -42 -127 -71 -159 -39 -46 -65
-4 -28 45 14 18 32 51 40 73 33 92 36 98 48 86 7 -7 12 -27 11 -45z m-773 23
c0 -5 -9 -10 -20 -10 -11 0 -20 5 -20 10 0 6 9 10 20 10 11 0 20 -4 20 -10z
m637 -46 c-3 -3 -12 -4 -19 -1 -8 3 -5 6 6 6 11 1 17 -2 13 -5z m-404 -85 c-7
-7 -21 -7 -44 -1 l-34 10 45 1 c31 1 41 -2 33 -10z m487 -155 c0 -24 -19 -54
-35 -54 -18 0 -20 41 -3 58 17 17 38 15 38 -4z m-1085 -34 c-3 -5 -13 -10 -21
-10 -8 0 -12 5 -9 10 3 6 13 10 21 10 8 0 12 -4 9 -10z m-55 -29 l35 -2 -25
-20 c-29 -24 -83 -19 -114 11 -18 18 -18 18 25 15 24 -1 60 -3 79 -4z m926
-16 c12 -9 14 -14 6 -15 -7 0 -20 7 -28 15 -20 19 -4 20 22 0z m-1016 -60 c21
-25 118 -55 178 -55 31 0 64 -5 72 -10 10 -7 -14 -10 -77 -10 -51 0 -95 4 -98
10 -4 6 -21 16 -38 24 -33 14 -78 56 -60 56 6 0 16 -7 23 -15z m-99 -66 c10
-6 8 -9 -8 -9 -17 0 -23 6 -23 23 0 16 3 18 9 8 5 -7 15 -17 22 -22z m34 -49
c19 -36 20 -61 1 -35 -15 23 -30 65 -22 65 3 0 12 -13 21 -30z m418 -17 c-13
-2 -33 -2 -45 0 -13 2 -3 4 22 4 25 0 35 -2 23 -4z m-275 -77 c49 -42 122 -74
201 -86 35 -5 66 -12 69 -15 13 -13 -15 -20 -76 -19 -67 0 -115 18 -182 64
-14 9 -37 20 -52 24 -21 5 -28 12 -28 30 0 14 -3 32 -7 41 -5 15 -3 16 16 5
13 -6 39 -26 59 -44z m928 15 c-19 -20 -91 -55 -141 -66 l-30 -8 24 24 c14 13
52 33 85 45 77 28 83 28 62 5z m-193 -58 c-7 -2 -19 -2 -25 0 -7 3 -2 5 12 5
14 0 19 -2 13 -5z m-53 -43 c0 -5 -25 -10 -56 -10 -34 0 -53 4 -49 10 3 6 28
10 56 10 27 0 49 -4 49 -10z m-187 -57 c-13 -2 -35 -2 -50 0 -16 2 -5 4 22 4
28 0 40 -2 28 -4z m-440 -20 c-7 -2 -19 -2 -25 0 -7 3 -2 5 12 5 14 0 19 -2
13 -5z m898 -215 c10 -18 9 -20 -5 -15 -22 9 -20 -5 3 -24 27 -24 213 -129
239 -135 31 -8 28 -24 -5 -24 -16 0 -45 -5 -66 -11 -44 -12 -64 -1 -114 62
-28 35 -33 38 -33 20 0 -12 9 -39 20 -61 26 -51 25 -56 -5 -32 -14 11 -44 23
-66 27 -33 6 -39 10 -34 25 5 17 -1 19 -45 22 l-51 3 32 35 c18 19 42 39 53
45 12 6 29 27 39 48 10 20 20 37 22 37 3 0 9 -10 16 -22z m-41 -238 c13 -9 13
-10 0 -10 -8 0 -22 5 -30 10 -13 9 -13 10 0 10 8 0 22 -5 30 -10z"/>
<path d="M808 4979 c-10 -5 -18 -17 -18 -24 0 -21 56 -20 64 1 12 31 -12 43
-46 23z"/>
<path d="M1856 4793 c-4 -32 -10 -73 -13 -91 -5 -33 -5 -33 28 -30 l34 3 3 88
c3 86 3 87 -21 87 -23 0 -25 -5 -31 -57z"/>
<path d="M1940 3201 c0 -38 19 -68 62 -102 24 -18 38 -27 31 -19 -6 8 -19 35
-29 60 -27 69 -64 105 -64 61z"/>
<path d="M1560 2414 c0 -9 -8 -23 -17 -30 -16 -12 -11 -13 35 -14 53 0 60 7
46 44 -9 22 -64 22 -64 0z"/>
<path d="M1410 2331 c-30 -10 -68 -25 -85 -34 l-30 -17 60 5 c170 13 198 17
216 28 16 10 21 9 28 -2 12 -19 30 -5 24 19 -5 18 -14 20 -82 19 -44 0 -99 -8
-131 -18z"/>
<path d="M1614 2275 c-3 -8 6 -35 20 -59 l26 -44 -24 -6 c-35 -9 -317 -28
-323 -23 -3 3 10 13 29 23 64 32 171 108 159 112 -23 8 -101 -9 -101 -21 0 -7
-30 -28 -67 -46 -38 -18 -84 -44 -104 -57 -40 -27 -159 -48 -128 -22 9 7 14
19 12 25 -3 7 8 18 24 23 15 6 46 20 68 31 36 18 37 19 10 14 -16 -3 -62 -9
-101 -14 -72 -9 -114 -24 -114 -41 0 -10 20 -14 55 -10 15 2 17 -1 7 -12 -6
-8 -48 -23 -92 -33 -44 -10 -79 -23 -77 -28 2 -6 90 -9 220 -8 166 1 245 6
333 21 64 11 119 22 123 24 4 3 27 0 51 -5 40 -9 46 -8 60 11 9 12 23 21 31
20 24 -4 43 0 36 7 -4 3 -2 12 5 20 9 12 7 13 -13 8 -22 -5 -30 1 -62 49 -38
57 -53 67 -63 41z"/>
<path d="M573 2194 c-66 -33 -93 -127 -53 -191 68 -112 247 -63 249 69 2 100
-106 166 -196 122z m149 -43 c40 -45 39 -107 -3 -155 -50 -58 -114 -58 -171
-1 -52 51 -31 157 36 186 11 5 41 7 66 5 34 -3 51 -11 72 -35z"/>
<path d="M582 2073 c0 -43 3 -63 5 -45 3 24 9 32 24 32 10 0 19 -3 19 -7 1
-14 40 -56 47 -49 4 3 -4 17 -17 31 -21 22 -21 25 -6 40 17 17 22 51 9 58 -5
2 -25 7 -45 11 l-38 7 2 -78z m63 47 c3 -6 3 -19 0 -31 -10 -31 -49 -21 -53
14 -3 23 0 27 22 27 14 0 28 -5 31 -10z"/>
<path d="M2305 1798 c-73 -26 -129 -91 -141 -165 l-6 -42 63 -3 64 -3 -62 -9
-63 -9 0 -51 c0 -75 18 -183 35 -217 12 -23 22 -29 48 -29 30 -1 31 -1 13 -15
-11 -8 -18 -17 -15 -19 20 -18 95 -46 123 -46 45 0 58 20 14 21 -18 1 3 5 47
10 87 9 109 24 140 98 17 38 13 51 -16 51 -10 0 -19 5 -19 10 0 6 11 10 25 10
20 0 25 5 25 25 0 21 -5 25 -32 26 l-33 2 35 6 35 6 -3 75 c-6 141 -43 219
-123 260 -41 22 -106 25 -154 8z m105 -88 c-8 -5 -35 -9 -60 -9 -41 1 -42 2
-15 9 17 4 44 8 60 9 23 0 26 -2 15 -9z m-10 -88 c16 -34 25 -155 16 -215 -8
-49 -23 -61 -60 -47 -29 11 -35 34 -38 164 -2 92 -1 99 20 117 28 22 45 17 62
-19z m145 -302 c-3 -5 -27 -9 -53 -9 -46 2 -46 2 -12 9 53 11 72 11 65 0z"/>
<path d="M935 1789 c-8 -12 -8 -12 20 -27 19 -11 19 -11 -2 -12 -23 0 -23 -2
-23 -119 0 -145 1 -147 93 -130 36 7 73 8 83 4 15 -6 11 -10 -21 -16 -22 -4
-60 -8 -84 -8 -51 -1 -70 -20 -71 -68 l0 -32 73 -3 c75 -3 69 -7 -37 -23 l-34
-6 -4 -71 c-4 -103 -6 -102 177 -95 200 8 192 5 193 78 0 33 -4 62 -10 65 -6
4 -53 6 -105 5 -101 -2 -101 -2 -94 64 2 30 19 35 114 35 l87 0 0 59 c0 36 -5
63 -12 67 -6 4 -53 10 -102 13 l-91 6 -3 42 c-3 39 -1 42 29 48 17 4 59 4 93
0 49 -5 65 -3 75 8 15 19 4 65 -17 70 -15 4 -15 5 1 6 20 1 23 21 5 39 -16 16
-324 17 -333 1z"/>
<path d="M1398 1789 c-10 -5 -18 -19 -18 -29 0 -12 7 -20 18 -21 10 0 12 -3 5
-6 -17 -6 -18 -249 -2 -259 8 -4 7 -9 -2 -15 -12 -8 -11 -12 3 -22 15 -12 15
-14 0 -25 -14 -9 -15 -13 -3 -20 9 -7 10 -12 2 -16 -17 -11 -14 -137 5 -164
13 -19 24 -22 79 -22 71 0 93 13 42 25 l-32 8 29 4 c28 4 28 6 22 50 -3 25 -6
74 -6 109 0 56 -2 63 -22 70 -22 7 -22 7 -3 14 18 6 19 16 16 151 -1 79 -7
152 -12 161 -11 20 -91 25 -121 7z"/>
<path d="M804 1779 c-4 -7 -54 -10 -153 -7 -145 3 -146 3 -149 -19 -2 -17 2
-23 15 -23 17 -1 17 -1 0 -15 -11 -8 -17 -23 -15 -37 3 -23 4 -23 138 -23 191
0 204 3 208 42 3 30 1 32 -35 36 l-38 4 38 1 c38 2 48 17 25 40 -15 15 -25 15
-34 1z m26 -78 c-8 -5 -32 -11 -52 -14 -29 -4 -36 -3 -31 9 3 9 20 14 52 14
30 -1 41 -4 31 -9z"/>
<path d="M1652 1778 c-13 -13 -16 -75 -6 -102 4 -12 20 -16 53 -16 81 0 84 -6
82 -167 -1 -136 0 -140 22 -151 18 -9 19 -11 5 -11 -16 -1 -18 -11 -18 -76 l0
-75 64 0 c64 0 94 14 60 27 -15 6 -14 7 6 15 19 7 21 13 16 39 -3 17 -6 96 -6
175 l0 144 -51 0 c-54 0 -59 14 -8 25 17 4 38 14 48 24 9 9 45 22 81 29 77 16
80 18 80 43 0 16 -7 19 -52 19 -38 0 -49 3 -38 10 8 5 32 10 53 10 40 0 42 2
27 31 -10 18 -23 19 -208 19 -141 0 -201 -3 -210 -12z"/>
<path d="M2823 1682 c-7 -4 -15 -44 -19 -90 -6 -74 -5 -84 12 -97 17 -13 18
-14 2 -15 -15 0 -18 -10 -18 -64 0 -59 2 -65 23 -69 l22 -4 -22 -8 c-20 -6
-23 -14 -23 -60 0 -60 11 -69 66 -59 l33 6 3 107 c3 95 4 103 16 81 12 -24 18
-26 85 -25 40 0 72 -4 72 -9 0 -5 -30 -8 -67 -7 l-67 2 9 -33 c26 -89 26 -89
99 -86 l66 3 -1 45 c-5 225 -5 228 -26 233 -22 6 -16 27 8 27 8 0 14 10 14 24
0 25 -21 36 -72 36 -25 0 -28 -3 -28 -35 0 -31 3 -35 25 -35 14 0 25 -4 25
-10 0 -5 -11 -10 -24 -10 -13 0 -27 -6 -30 -12 -5 -10 -7 -10 -12 0 -3 7 -29
12 -67 13 l-62 1 53 8 c29 4 56 10 59 13 3 3 -3 31 -13 62 -13 42 -24 59 -41
66 -29 11 -84 12 -100 1z"/>
<path d="M3028 1682 c-11 -2 -18 -13 -18 -28 0 -22 4 -24 43 -24 51 0 60 6 47
30 -10 18 -43 28 -72 22z"/>
<path d="M3254 1664 c-49 -32 -72 -63 -54 -74 9 -6 8 -10 -5 -18 -16 -8 -17
-22 -13 -128 5 -130 14 -155 65 -199 28 -23 42 -27 98 -27 47 0 73 5 93 18
l27 18 -55 10 c-47 8 -51 10 -30 17 14 4 44 7 66 8 30 1 44 6 49 18 3 10 1 19
-4 21 -7 2 -5 10 4 19 10 10 15 35 15 78 0 66 -5 74 -53 76 -16 1 -13 3 11 10
17 5 32 16 32 23 0 7 -15 17 -32 21 l-33 7 28 10 c32 11 33 14 8 52 -47 71
-142 88 -217 40z m104 -107 c16 -19 26 -117 18 -172 -7 -43 -9 -46 -34 -43
-32 4 -40 26 -41 129 -1 73 8 99 35 99 6 0 16 -6 22 -13z"/>
<path d="M507 1623 c-11 -10 -8 -108 3 -119 8 -8 8 -19 0 -38 -5 -15 -10 -52
-10 -82 l0 -54 33 -1 32 -1 -32 -9 c-18 -5 -33 -16 -33 -23 0 -13 17 -18 110
-31 43 -6 44 -5 20 9 -24 15 -24 15 -4 16 26 0 34 18 34 75 0 51 7 55 99 55
39 0 72 5 79 12 17 17 15 49 -5 64 -11 8 -13 13 -5 14 6 0 12 8 12 18 0 17 -7
19 -75 14 -84 -5 -105 4 -105 48 0 20 -6 29 -22 34 -31 8 -123 8 -131 -1z
m258 -143 c13 -6 -15 -9 -80 -9 -65 0 -93 3 -80 9 11 5 47 9 80 9 33 0 69 -4
80 -9z"/>
<path d="M502 1223 c3 -28 4 -28 73 -28 58 0 70 3 73 17 3 17 -1 19 -106 33
-43 5 -43 5 -40 -22z"/>
<path d="M2990 1231 c0 -7 24 -11 62 -11 74 0 73 5 -4 14 -39 5 -58 4 -58 -3z"/>
<path d="M3437 1086 c-81 -29 -133 -84 -151 -158 l-6 -28 77 0 c65 0 80 3 100
22 32 30 54 16 72 -45 9 -30 21 -48 35 -53 21 -7 21 -7 -1 -11 -20 -4 -22 -11
-25 -86 -3 -79 -4 -82 -28 -85 -41 -4 -51 11 -63 93 l-11 77 -70 -7 c-39 -4
-74 -9 -79 -12 -4 -3 -6 -17 -3 -31 2 -15 7 -48 11 -74 l6 -47 47 -6 c102 -13
123 -17 118 -23 -3 -3 -40 -4 -82 -3 -81 3 -90 -7 -31 -33 29 -13 30 -14 8
-15 -23 -1 -24 -2 -6 -21 12 -13 32 -20 59 -21 39 -1 39 -2 11 -9 l-30 -7 28
-11 c46 -19 134 -15 181 9 76 38 105 108 106 255 0 68 -3 83 -17 88 -14 6 -15
9 -4 15 7 5 11 19 9 32 -2 18 -10 25 -33 28 -30 4 -30 4 -5 11 76 20 -62 171
-155 170 -16 -1 -47 -7 -68 -14z m240 -412 c-3 -3 -12 -4 -19 -1 -8 3 -5 6 6
6 11 1 17 -2 13 -5z m-84 -71 c-7 -2 -21 -2 -30 0 -10 3 -4 5 12 5 17 0 24 -2
18 -5z"/>
<path d="M2876 1057 l-79 -10 7 -75 c3 -41 6 -104 6 -140 l0 -65 53 6 c51 5
45 -1 -18 -19 -27 -9 -30 -14 -33 -59 -2 -28 -1 -65 3 -82 5 -27 11 -33 33
-34 l27 -1 -27 -11 c-24 -9 -28 -16 -28 -51 0 -67 4 -69 121 -61 152 10 200
29 234 95 21 41 37 149 30 201 -6 46 -9 49 -42 55 -38 7 -28 24 16 24 21 0 23
3 17 32 -21 104 -40 138 -77 138 -13 0 -19 6 -17 17 2 12 -11 21 -47 34 -55
20 -65 20 -179 6z m161 -33 c-3 -3 -12 -4 -19 -1 -8 3 -5 6 6 6 11 1 17 -2 13
-5z m-21 -112 c27 -17 35 -57 35 -164 0 -126 -11 -151 -65 -146 l-31 3 -7 145
c-5 80 -6 151 -3 158 5 13 53 16 71 4z"/>
<path d="M2423 1023 c-25 -5 -25 -4 -53 -138 -17 -83 -18 -91 -2 -102 14 -12
14 -13 -5 -13 -18 0 -24 -12 -41 -87 -13 -56 -17 -92 -11 -98 6 -6 2 -15 -11
-25 -20 -15 -43 -101 -33 -127 7 -17 134 -18 151 -1 7 7 12 22 12 34 0 26 17
34 71 34 30 0 46 -6 64 -25 25 -27 36 -30 128 -27 73 3 81 20 38 92 -5 8 -21
56 -36 105 -15 50 -34 95 -42 102 -8 6 -13 15 -10 20 3 4 -14 64 -37 133 l-42
125 -59 1 c-33 1 -70 0 -82 -3z m95 -260 c6 -10 13 -37 17 -60 l7 -43 -37 0
c-33 0 -37 2 -32 23 3 12 9 39 12 60 8 40 19 47 33 20z m137 -143 c15 -6 5 -9
-35 -9 -30 -1 -95 -8 -145 -16 -103 -17 -148 -18 -95 -3 44 13 185 36 225 36
17 0 39 -3 50 -8z"/>
<path d="M1774 1006 c-3 -7 -4 -33 -2 -57 l3 -44 63 -3 c80 -4 80 -20 0 -24
-48 -2 -64 -7 -66 -19 -2 -11 7 -19 30 -24 l33 -8 -30 -6 c-24 -5 -30 -11 -29
-31 1 -14 5 -101 9 -195 4 -93 10 -174 14 -178 5 -5 32 -7 62 -5 l54 3 3 113
c3 122 5 126 65 103 28 -11 30 -15 48 -124 10 -57 18 -81 32 -88 18 -10 103
-6 114 5 3 3 1 46 -5 96 -9 74 -17 98 -41 134 l-31 45 24 28 c33 40 46 68 46
98 0 26 0 26 -72 23 -71 -3 -73 -4 -76 -31 -4 -33 -31 -49 -75 -45 -32 3 -32
3 -32 58 0 49 2 55 23 58 12 2 36 -4 54 -12 37 -19 51 -20 118 -4 50 12 52 13
46 42 -8 37 -31 63 -78 87 -31 16 -59 19 -168 19 -102 0 -132 -3 -136 -14z"/>
<path d="M1408 1002 l-108 -3 0 -79 c0 -43 4 -81 8 -84 4 -2 36 -2 70 1 43 4
62 10 62 19 0 19 60 18 88 -2 26 -18 30 -65 7 -84 -10 -9 -44 -12 -98 -11
-119 2 -137 -3 -137 -42 0 -47 11 -77 26 -77 8 0 14 -4 14 -10 0 -5 -7 -10
-15 -10 -18 0 -20 -36 -2 -44 10 -5 10 -7 0 -12 -7 -3 -13 -20 -13 -38 0 -26
5 -34 28 -43 l27 -11 -28 -1 c-27 -1 -28 -3 -22 -33 9 -42 21 -49 70 -42 69
10 67 6 64 101 -3 107 -4 111 -33 106 -13 -3 -27 0 -30 6 -4 6 0 11 11 11 10
1 63 5 118 9 54 4 107 6 117 3 29 -7 10 -22 -30 -22 -63 0 -65 -5 -44 -111
l18 -94 59 0 c56 0 59 1 68 29 8 24 6 32 -8 43 -16 11 -17 16 -6 37 16 29 1
84 -36 133 -20 25 -22 36 -14 52 16 29 15 31 -31 32 -34 0 -39 2 -23 9 11 5
37 11 57 15 44 7 61 31 56 78 -2 24 -8 33 -25 35 -27 4 -27 3 -11 36 9 22 8
29 -8 47 -43 47 -82 55 -246 51z"/>
<path d="M977 993 c-103 -3 -117 -6 -107 -18 10 -12 9 -15 -4 -15 -13 0 -16
-11 -16 -55 0 -42 3 -55 15 -55 8 0 15 -4 15 -10 0 -5 -7 -10 -16 -10 -12 0
-14 -9 -12 -42 3 -40 5 -43 43 -54 l40 -12 -37 -1 c-33 -1 -38 -4 -38 -25 0
-22 6 -25 63 -35 34 -6 76 -15 92 -20 27 -8 26 -9 -20 -10 -27 0 -69 4 -92 8
l-43 8 0 -39 c0 -31 5 -40 23 -48 l22 -9 -22 0 c-20 -1 -23 -6 -23 -41 0 -35
3 -40 28 -46 47 -10 48 -12 10 -13 -37 -1 -38 -2 -38 -36 0 -29 4 -36 26 -41
32 -8 219 3 296 18 53 10 56 12 48 33 -5 13 -6 26 -3 29 4 3 -2 15 -12 26 -16
18 -16 20 -2 20 23 0 21 17 -4 30 -15 8 -40 8 -94 -1 -83 -13 -105 -9 -105 21
0 15 -7 20 -29 20 -17 0 -33 5 -36 10 -4 6 8 10 28 10 20 0 37 6 40 14 4 9 35
15 106 20 l101 8 0 44 c0 24 -1 45 -2 45 -2 1 -55 5 -118 9 l-115 7 113 1 c73
1 111 6 107 12 -3 6 -44 10 -90 10 -106 0 -115 4 -115 46 0 33 -1 34 -39 34
-22 0 -43 5 -46 10 -6 9 48 12 235 14 41 1 45 3 48 27 2 20 -2 28 -20 34 l-23
8 23 4 c31 6 29 41 -4 53 -14 6 -37 9 -52 8 -15 -1 -80 -4 -145 -5z"/>
<path d="M447 959 c-39 -18 -45 -24 -35 -36 9 -12 9 -14 -3 -13 -7 1 -19 2
-25 1 -14 -1 -48 -70 -39 -79 12 -13 147 -14 169 -2 35 18 69 9 76 -20 5 -23
11 -25 63 -28 70 -4 67 -22 -4 -22 -31 0 -48 -4 -44 -10 3 -5 38 -10 77 -10
l71 0 -7 61 c-6 66 -18 89 -45 89 -21 0 -46 37 -28 43 22 8 -67 40 -123 44
-41 2 -67 -2 -103 -18z"/>
<path d="M3313 873 c-32 -4 -44 -25 -24 -38 18 -10 151 7 151 20 0 24 -39 29
-127 18z"/>
<path d="M1307 813 c-4 -3 -7 -15 -7 -25 0 -16 9 -18 70 -18 68 0 70 1 70 25
0 24 -2 25 -63 25 -35 0 -67 -3 -70 -7z"/>
<path d="M333 794 c-3 -8 -2 -19 3 -24 7 -7 117 -30 147 -30 4 0 7 16 7 35 l0
35 -75 0 c-59 0 -77 -3 -82 -16z"/>
<path d="M340 692 c0 -27 4 -30 43 -36 70 -11 81 -28 13 -20 l-59 7 6 -38 c3
-21 9 -40 12 -43 3 -3 40 -7 83 -10 l79 -4 -11 75 c-6 42 -13 78 -16 80 -3 2
-38 8 -77 11 l-73 7 0 -29z"/>
<path d="M654 611 c-29 -5 -44 -21 -44 -47 0 -18 6 -24 23 -25 21 0 21 -1 -3
-10 -14 -6 -77 -9 -143 -7 -64 2 -117 -1 -117 -5 0 -16 30 -62 54 -85 44 -40
108 -62 180 -61 64 1 70 3 107 39 22 20 39 46 39 58 0 12 4 22 10 22 12 0 24
64 16 94 -5 21 -13 25 -55 28 -26 1 -57 1 -67 -1z"/>
</g>
</svg>
